<svg width="83" height="83" viewBox="0 0 83 83" fill="none" xmlns="http://www.w3.org/2000/svg">
<path d="M37.2122 0.205944C31.8051 1.42856 27.5862 4.76922 25.296 9.65968C24.2972 11.8122 23.9184 13.4481 23.8151 16.1344C23.7462 18.0286 23.7978 18.7518 24.0734 20.0949C25.1238 25.1576 28.2406 29.3248 32.7694 31.7184C40.0534 35.5584 49.1283 33.5437 54.1049 26.9829C55.2414 25.502 56.5501 22.7813 57.0151 20.9559C57.48 19.0962 57.6178 16.2893 57.3422 14.3952C56.3779 7.74827 51.8146 2.47897 45.34 0.533123C44.0312 0.137066 43.4458 0.0681877 41.0694 0.0165253C39.1064 -0.0351334 38.0043 0.0337448 37.2122 0.205944ZM42.4987 2.25512C44.8061 2.46175 47.8368 3.78769 50.0066 5.56134C52.1246 7.28333 54.1221 10.4174 54.8798 13.207C55.3447 14.929 55.2931 18.7346 54.8109 20.4738C53.3128 25.6398 49.6794 29.3076 44.479 30.8746C43.1875 31.2707 42.6364 31.3396 40.725 31.3568C37.7115 31.374 35.8001 30.8574 33.1483 29.3248C31.4607 28.3433 29.0155 25.8808 27.9995 24.1416C25.7437 20.2671 25.3821 15.4972 27.0352 11.3817C28.7227 7.14557 32.5283 3.75325 36.8678 2.61673C38.0215 2.30677 40.2429 2.04848 40.9833 2.11736C41.2244 2.1518 41.896 2.20345 42.4987 2.25512Z" fill="#2A2624"/>
<path d="M25.0722 36.0402C16.29 37.6417 9.72925 44.6502 8.36888 53.88C8.2139 54.8788 8.09336 55.9637 8.09336 56.2908C8.09336 56.773 7.9556 56.9796 7.30125 57.5307C3.8056 60.4581 3.49564 66.5195 6.66411 69.8946L7.09461 70.3423L4.52884 70.4112C2.08361 70.4628 1.92863 70.48 1.25705 70.9278C0.0688797 71.7199 0 72.0126 0 76.7998C0 80.8809 0.0172199 81.0186 0.396058 81.5869C0.602697 81.8969 1.05042 82.3446 1.36037 82.5512L1.94585 82.9473H40.639H79.3322L79.9176 82.5512C80.2276 82.3446 80.6753 81.8969 80.882 81.5869C81.2436 81.0703 81.278 80.7948 81.278 79.0039C81.278 77.0753 81.2952 76.9892 81.7946 76.2315C82.6039 75.0089 83 73.7863 83 72.4776C83 71.1344 82.6384 70.2217 81.7257 69.2058C81.1058 68.5342 81.1058 68.517 81.1058 66.9672C81.1058 64.5736 80.417 61.8356 79.3494 60.0276C78.2129 58.0989 76.2498 56.5319 74.1662 55.8948C72.4098 55.3437 70.3606 55.4643 68.8797 56.2047C68.2598 56.4975 67.7604 56.7386 67.7432 56.7213C67.7259 56.7041 67.6571 56.3253 67.6054 55.8603L67.4849 55.051H68.3114C69.3791 55.051 71.2388 54.6377 72.2203 54.2072C73.3741 53.7078 74.6139 52.4508 75.1477 51.2798C75.9571 49.489 76.1465 45.9589 75.4921 44.9429C75.1649 44.4091 73.684 44.1508 71.566 44.2369C70.6017 44.2886 69.7062 44.3747 69.5685 44.4263C69.3963 44.4952 69.0347 44.168 68.4492 43.4103C65.8662 40.0352 62.1122 37.6417 57.1701 36.2296C55.8959 35.868 55.6203 35.868 41.1556 35.8336C28.9295 35.7991 26.2087 35.8336 25.0722 36.0402ZM53.4851 37.9861C56.8774 38.2788 59.6842 39.2259 62.4222 40.9995C63.8687 41.9466 66.4172 44.2886 67.0544 45.2701C67.3643 45.7522 67.3643 45.7522 66.8133 46.3894C66.1589 47.1298 65.5734 48.3697 65.2635 49.6612L65.0568 50.5738L64.3853 50.0056C64.0237 49.6784 63.3176 49.2135 62.8527 48.9552C61.8539 48.4041 61.2857 48.4558 60.8724 49.0929C60.4075 49.7989 60.683 50.2811 62.1467 51.2282C62.8871 51.7103 63.6965 52.3819 63.9548 52.7091C64.6436 53.6217 65.229 55.0166 65.3668 56.067L65.4874 57.0141L64.9363 56.618C63.5415 55.6193 60.8208 55.2576 58.961 55.8259C58.255 56.0325 56.5847 56.0842 49.1112 56.0842H40.088L40.6218 55.4126C41.8788 53.8284 42.7054 51.0215 42.4299 49.2479L42.3266 48.5074H44.5479H46.7865L47.3203 49.334C47.9058 50.2466 48.6807 50.8493 50.0239 51.4693C51.2637 52.0375 54.0705 52.0375 55.4654 51.4693C57.2562 50.7632 58.5649 49.2651 58.8232 47.6809C58.9093 47.0954 58.8749 46.9749 58.4616 46.6477C57.9967 46.2688 57.9106 46.2688 49.8517 46.2688H41.7066L41.1728 45.4251C40.4496 44.3058 39.0031 42.9626 37.9183 42.4116C35.4558 41.1717 32.2701 41.1373 29.9454 42.3255C29.5494 42.5149 25.0378 45.4939 19.9234 48.9552C14.723 52.4508 10.5558 55.1371 10.5214 55.0338C10.4008 54.6722 10.8658 52.4336 11.3824 50.8666C13.7071 43.7031 19.9234 38.6749 27.2075 38.0205C29.4633 37.8311 51.1259 37.7966 53.4851 37.9861ZM36.5407 44.2713C39.072 45.5284 40.5873 48.3008 40.1568 50.901C39.9158 52.2958 39.2442 53.6217 38.3315 54.5C37.1606 55.6365 16.1351 69.6707 15.0158 70.0668C14.2581 70.3423 13.7415 70.3939 12.7427 70.3423C10.4008 70.2045 8.52386 68.9991 7.38734 66.8983C6.83631 65.8651 6.80187 65.7274 6.80187 64.0915C6.80187 62.49 6.83631 62.2834 7.3529 61.2502C7.66286 60.6303 8.19668 59.8554 8.5583 59.511C9.04046 59.046 27.6896 46.3894 30.6687 44.5124C32.2185 43.5309 34.8187 43.4276 36.5407 44.2713ZM73.5979 47.6637C73.5807 49.1962 73.2535 50.2466 72.5475 51.0904C71.5832 52.2097 69.999 52.8124 68.0187 52.8124H67.1577V52.1581C67.1577 51.2971 67.6054 49.5062 68.0015 48.7141C68.432 47.8531 69.1552 47.1471 69.999 46.7682C70.5328 46.5099 71.0149 46.4583 72.1515 46.4927L73.6152 46.5271L73.5979 47.6637ZM55.7064 48.6796C55.4826 49.0585 54.1394 49.5751 53.2095 49.6612C52.1075 49.7645 50.6266 49.4029 49.9378 48.8518L49.5073 48.5074H52.6585C54.7421 48.5074 55.7753 48.5591 55.7064 48.6796ZM63.1454 58.2539C63.9548 58.65 64.3853 59.046 65.5562 60.4408C65.849 60.7852 66.1073 60.9058 66.5378 60.9058C67.0544 60.9058 67.2266 60.7852 67.7604 60.0792C69.0347 58.4089 70.4295 57.7029 72.272 57.8406C75.2855 58.0645 77.7307 60.6303 78.5917 64.4703C78.7467 65.1591 78.8672 66.1234 78.8672 66.6228V67.5354L77.6102 67.5527C76.6803 67.5527 76.1465 67.656 75.5782 67.9315L74.7861 68.3103L73.9423 67.9315C73.3224 67.656 72.7542 67.5527 71.8071 67.5527C69.5512 67.5354 67.7604 68.6892 66.8133 70.7383C65.8317 72.9253 66.8305 75.6116 69.8612 78.8317C71.101 80.1232 71.1527 80.2265 70.8427 80.4504C70.6705 80.5881 70.2056 80.7087 69.844 80.7087C69.2241 80.7087 69.0519 80.6054 68.0015 79.5033C67.261 78.7284 66.6927 78.2979 66.4517 78.2979C66.1245 78.2979 64.7469 79.5722 64.7469 79.8821C64.7469 80.1232 63.5587 80.7087 63.0766 80.7087C62.7322 80.7087 62.1467 80.4159 61.3373 79.8477C57.9795 77.4886 55.6031 74.4234 54.5527 71.0655C54.2083 69.9634 54.1566 69.4296 54.1739 67.3632C54.1739 65.0902 54.2083 64.8491 54.7593 63.2477C55.9303 59.8037 58.2378 57.8406 61.1479 57.8062C62.0089 57.8062 62.4739 57.9095 63.1454 58.2539ZM54.4322 58.9255C53.6917 59.7693 52.9512 61.3018 52.4002 63.0927C52.0042 64.4359 51.9525 64.918 51.9353 67.2083L51.9181 69.8257L51.0571 70.0323C49.5417 70.4112 46.7176 70.4456 45.099 70.1184C41.1212 69.3263 37.5739 66.9155 35.4386 63.5749C34.6293 62.3006 33.8371 60.5958 33.9921 60.4408C34.0438 60.3892 34.7154 59.8898 35.5075 59.3388L36.9367 58.34L45.96 58.3228H54.966L54.4322 58.9255ZM33.6994 65.1763C34.6465 66.6056 36.5234 68.517 37.9183 69.4641L39.1237 70.2906L34.216 70.3423C31.5124 70.3595 27.0353 70.3595 24.2801 70.3423L19.2519 70.2906L25.5716 66.0373L31.8913 61.784L32.4768 62.9894C32.8039 63.661 33.355 64.6425 33.6994 65.1763ZM72.7714 69.9462C73.0985 70.084 73.5807 70.3595 73.8218 70.5489C74.4245 71.0139 75.1822 70.9794 75.8021 70.4628C76.8525 69.5674 78.2645 69.4985 79.401 70.2562C80.2793 70.8417 80.7614 71.6682 80.7614 72.5809C80.7614 73.9068 79.9349 75.1639 77.3174 77.833C76.0432 79.1244 74.8894 80.1921 74.7861 80.1921C74.4073 80.1921 70.3089 76.0076 69.6029 74.8883C68.4492 73.0975 68.4492 71.8404 69.5857 70.7039C70.55 69.7396 71.6521 69.4813 72.7714 69.9462ZM53.4334 74.1995C54.3977 76.1798 55.6031 77.7985 57.394 79.5549L58.7544 80.8809H30.8409H2.91017L2.47967 80.4504L2.04917 80.0199L2.10083 76.5587C2.15249 73.373 2.18693 73.0803 2.47967 72.8564C2.77241 72.6498 6.50913 72.6153 27.7413 72.6153H52.6585L53.4334 74.1995ZM78.695 80.5709C78.4884 80.7431 78.144 80.8809 77.9546 80.8809C77.6446 80.8809 77.679 80.7948 78.2645 80.1749C78.9189 79.5205 78.9533 79.5033 79.005 79.8821C79.0566 80.1232 78.9361 80.3815 78.695 80.5709Z" fill="#2A2624"/>
</svg>
