<svg width="83" height="81" viewBox="0 0 83 81" fill="none" xmlns="http://www.w3.org/2000/svg">
<path d="M41.4016 1.12399C40.8137 1.59429 39.5876 4.16418 38.9829 6.23019C38.7142 7.154 38.311 8.88406 38.1095 10.0934C37.9079 11.286 37.7064 12.445 37.6728 12.6633C37.6056 13.0161 37.5384 12.9993 36.2954 12.1258C34.1622 10.6309 31.4748 9.42156 28.9721 8.83367C27.242 8.41376 26.8389 8.41376 26.3854 8.83367C25.9319 9.27039 25.8815 10.2446 26.3182 10.5805C26.4693 10.7149 27.0068 11.1348 27.4772 11.5211C27.9643 11.8907 28.6697 12.5793 29.0392 13.0497C29.7279 13.9231 31.3404 16.9969 31.1892 17.148C31.1556 17.1984 30.5174 17.0809 29.7783 16.8961C27.8635 16.4258 25.428 16.0563 24.2186 16.0563C23.3788 16.0563 23.0932 16.1235 22.8245 16.3922C22.1526 17.0641 22.4717 18.1223 23.4627 18.5254C25.4783 19.3484 27.9475 21.2632 29.476 23.1781C30.4166 24.3706 32.0627 27.2429 32.0627 27.73C32.0627 27.8308 31.4412 28.3179 30.6853 28.8218C28.9721 29.9471 26.5533 32.3491 25.428 34.0287C23.194 37.4049 22.1358 40.5459 21.8503 44.7283L21.7327 46.4415L13.5863 41.7552C9.11834 39.1685 5.32228 37.0018 5.15432 36.9514C4.43206 36.733 3.96175 37.2369 2.80278 39.5717C0.669594 43.8548 -0.119851 47.6341 0.0313192 52.925C0.115303 56.3348 0.38405 58.0312 1.29107 60.8531L1.74458 62.2808L1.12311 63.5742C0.199286 65.4386 -0.0694611 66.8831 0.0145224 69.3522C0.0817093 71.0151 0.18249 71.6534 0.552017 72.7452C1.84536 76.558 5.15432 79.615 9.05116 80.6564C10.5293 81.0595 13.6199 81.0595 15.098 80.6564C15.7027 80.4885 16.7441 80.1021 17.4159 79.783L18.6421 79.1951L19.6835 79.531C21.1616 80.0181 23.194 80.4885 24.7561 80.7404C26.4861 81.0092 31.2564 81.0092 32.9865 80.7404C35.9091 80.2869 39.0501 79.3295 41.1665 78.2713C41.9223 77.885 42.5438 77.7002 43.0141 77.7002C45.416 77.7002 49.0105 76.7428 51.4797 75.4494L52.8738 74.744L53.6296 75.9533C54.5199 77.3307 56.1827 78.9768 57.4761 79.7158C60.13 81.2443 63.5061 81.4123 66.2776 80.1525C67.1846 79.7158 67.2014 79.7158 67.8061 80.0349C69.5529 80.9252 71.9549 81.2275 73.8865 80.8244C75.9525 80.3877 77.4474 79.5478 79.0935 77.885C80.7731 76.1885 81.4618 75.0799 82.2177 72.8627C83.1247 70.2089 83.259 66.7991 82.5368 64.0109C82.1001 62.2976 80.7395 59.7613 79.5806 58.5016C77.4474 56.1668 75.0287 55.0246 72.2068 55.0246C71.3166 55.0246 70.1744 55.1422 69.6369 55.2766C69.0994 55.411 68.6291 55.5285 68.5955 55.5285C68.5451 55.5285 68.5115 54.5879 68.5115 53.4289C68.5115 51.1782 68.3772 50.6407 67.7221 50.3384C67.151 50.0696 66.9326 50.1032 66.4287 50.5063C65.992 50.8423 65.992 50.8591 65.992 53.261V55.6629L64.9674 55.3438C64.4131 55.1758 63.6573 55.0246 63.3045 55.0246H62.6663L62.5823 49.0282C62.5151 43.838 62.4479 42.8134 62.1624 41.5033C61.5577 38.7822 60.6171 36.5818 59.139 34.2807C58.1144 32.7186 55.1245 29.7288 53.5289 28.7042L52.2523 27.8643L52.9914 26.3023C54.5703 22.9933 57.0562 20.457 60.3819 18.7773C61.5745 18.1726 61.8432 17.8871 61.8432 17.232C61.8432 16.3922 61.3897 16.0563 60.214 16.0563C59.0214 16.0563 55.5613 16.5938 54.2679 16.9801C53.7808 17.1313 53.2937 17.232 53.2097 17.1984C53.1257 17.1648 53.4449 16.3586 53.932 15.4012C54.7886 13.6543 55.8132 12.445 57.812 10.7485C58.5511 10.1102 58.6183 9.52234 58.0136 8.91766C57.5265 8.41376 57.2409 8.39696 55.4101 8.83367C52.7226 9.48875 49.7496 10.8493 47.734 12.3946L46.6758 13.184V12.7137C46.6758 11.8571 46.0207 8.44735 45.5 6.56612C44.9121 4.48332 43.7196 1.82944 43.0813 1.19117C42.5606 0.687271 42.0063 0.653671 41.4016 1.12399ZM43.2157 7.90986C43.686 9.67351 44.0891 12.025 44.3075 14.0407L44.4418 15.4684L43.8372 16.3922C43.518 16.8961 42.9973 17.7863 42.7118 18.3742L42.1743 19.4324L41.7376 18.475C41.5024 17.9543 40.9817 17.0641 40.6122 16.5098L39.9235 15.5188L40.1083 13.8055C40.461 10.6477 41.0657 7.85947 41.8383 5.75987L42.1911 4.76887L42.5102 5.59191C42.6782 6.02863 42.9973 7.07002 43.2157 7.90986ZM35.3884 14.6621C36.7489 15.7035 37.6224 16.6441 38.563 18.0551C39.2516 19.0797 40.1923 21.1793 40.377 22.1031L40.5114 22.6742L39.5372 21.7839C38.3782 20.7257 37.0849 19.8355 35.506 18.9957L34.347 18.391L33.8935 16.9297C33.6248 16.1235 33.0705 14.7965 32.6673 13.9903L31.9115 12.4954L33.0369 13.1168C33.6583 13.4528 34.7165 14.1582 35.3884 14.6621ZM51.782 13.9231C51.3789 14.6789 50.8414 15.9891 50.5558 16.8121C50.0855 18.2398 50.0183 18.3406 49.3297 18.7269C47.3981 19.7851 46.0207 20.7425 44.9457 21.7503C43.6692 22.9597 43.686 22.9933 44.4082 20.8769C45.4664 17.7863 47.9356 14.9981 51.2277 13.2008C51.9164 12.8313 52.4707 12.529 52.4875 12.529C52.5043 12.529 52.1851 13.1504 51.782 13.9231ZM34.1455 21.2129C35.8083 22.0359 37.2192 23.0773 38.3446 24.2867C38.8653 24.8577 39.2852 25.3616 39.2516 25.3952C39.2181 25.412 38.5966 25.5632 37.8743 25.7144C37.1353 25.8655 36.0771 26.1679 35.506 26.3694L34.4646 26.739L33.7759 25.3112C32.9025 23.4468 31.9115 21.9687 30.5677 20.5578L29.4928 19.4156L31.2228 20.0203C32.1802 20.3394 33.4904 20.8769 34.1455 21.2129ZM53.5457 20.7929C52.2187 22.3382 51.4461 23.5308 50.623 25.3112L49.968 26.739L48.5402 26.2687C47.7508 26.0167 46.659 25.7312 46.1383 25.6304C45.6008 25.5296 45.1641 25.3784 45.1641 25.3112C45.1641 25.2273 45.6512 24.673 46.2559 24.0683C47.4652 22.8421 48.893 21.8511 50.6566 21.0113C51.7484 20.4906 54.1167 19.6004 54.4527 19.5836C54.5199 19.5836 54.1167 20.1211 53.5457 20.7929ZM43.0981 28.7714L42.1407 29.7456L41.1833 28.7714L40.2091 27.814H42.1407H44.0723L43.0981 28.7714ZM38.8653 29.9975L40.377 31.5092L37.5552 34.3143L34.7501 37.1361L32.4826 34.8686C31.2396 33.6256 30.215 32.5506 30.215 32.4834C30.215 32.2987 32.5162 30.6022 33.6248 29.9975C34.5822 29.46 36.8497 28.5026 37.1857 28.4858C37.2864 28.4858 38.0423 29.1745 38.8653 29.9975ZM49.0609 29.1913C50.5222 29.796 51.6812 30.4846 53.1089 31.5596L54.2511 32.4163L51.8828 34.7846L49.5312 37.1361L46.7598 34.3647L43.9883 31.5932L45.5336 30.0479C47.2805 28.3011 47.0789 28.3515 49.0609 29.1913ZM44.9625 41.7048L42.1407 44.5267L39.3692 41.7552L36.5978 38.9838L39.4028 36.1787L42.2247 33.3569L44.9961 36.1283L47.7676 38.8998L44.9625 41.7048ZM30.1814 41.7048L27.3596 44.5267L26.0998 43.2669C25.3272 42.4943 24.8401 41.8728 24.8401 41.6712C24.8401 41.2681 25.4615 39.4205 25.9822 38.1943C26.3518 37.3545 27.2588 35.8596 27.9811 34.8854L28.4178 34.3311L30.7021 36.6154L32.9865 38.8998L30.1814 41.7048ZM57.073 35.8596C58.1144 37.4553 58.887 39.1517 59.3741 40.8818L59.6765 41.94L58.3327 43.2837L57.0058 44.6107L54.2007 41.8056L51.3789 38.9838L53.68 36.6826C54.9566 35.4061 56.0148 34.3647 56.0484 34.3647C56.0652 34.3647 56.5355 35.0365 57.073 35.8596ZM6.21251 40.4451C6.58204 40.6466 6.86758 40.8818 6.86758 40.949C6.86758 41.033 6.71641 41.4025 6.53165 41.772C5.92697 42.9478 5.2215 45.0138 4.81838 46.811C4.48245 48.3395 4.43206 48.9946 4.43206 52.0852C4.43206 55.4781 4.51604 56.2004 5.10393 58.468C5.17111 58.7199 5.00315 58.9383 4.48245 59.3414C4.09612 59.6269 3.7266 59.8453 3.65941 59.7949C3.50824 59.7109 2.92035 57.2082 2.6684 55.6293C2.1645 52.4379 2.60122 47.3821 3.65941 44.1404C4.2137 42.4775 5.2551 40.0756 5.43986 40.0756C5.50705 40.0756 5.85978 40.2435 6.21251 40.4451ZM37.572 49.0954L34.7501 51.9172L31.9787 49.1458L29.2072 46.3743L32.0123 43.5693L34.8341 40.7474L37.6056 43.5189L40.377 46.2903L37.572 49.0954ZM52.4371 49.1794L49.6152 52.0012L46.8102 49.1962L43.9883 46.3743L46.7934 43.5693L49.6152 40.7474L52.4203 43.5525L55.2421 46.3743L52.4371 49.1794ZM28.0818 53.0762C38.3782 59.0223 46.9277 63.9605 47.0789 64.0445C47.2973 64.162 47.1965 64.3636 46.5078 65.2874C42.0231 71.2671 34.2462 74.7608 26.99 74.0385C25.9487 73.9377 24.7057 73.7698 24.2354 73.6522L23.3956 73.4506L23.6811 72.594C24.101 71.351 24.3698 69.1339 24.2522 67.9077C23.6979 62.5664 20.1202 58.3168 15.098 57.057L13.8382 56.7379L13.7542 55.2094C13.6535 53.4289 13.4183 53.009 12.4945 53.009C11.5035 53.009 11.2347 53.4793 11.2347 55.2094V56.6539L10.3949 56.7715C9.92459 56.8387 9.08475 57.0234 8.54725 57.1914C7.99296 57.3762 7.50586 57.4602 7.45547 57.3762C7.20352 56.9563 6.86758 53.9832 6.86758 52.0852C6.86758 49.7505 7.15313 47.6845 7.74101 45.7025C8.12734 44.3419 9.03436 42.2591 9.21912 42.2591C9.28631 42.2591 17.7687 47.1302 28.0818 53.0762ZM60.1132 46.4079V47.7013L59.4413 47.0462L58.7694 46.3911L59.3909 45.7528C59.7268 45.4001 60.0292 45.1146 60.0628 45.1146C60.0964 45.1146 60.1132 45.7025 60.1132 46.4079ZM24.9744 45.8368L25.5119 46.3911L24.9241 46.9622L24.3362 47.5333V46.4079C24.3362 45.7864 24.353 45.2825 24.3866 45.2825C24.4202 45.2825 24.6721 45.5345 24.9744 45.8368ZM45.3825 56.234C43.0981 58.5184 42.8797 58.7031 42.5606 58.4848C42.3758 58.3672 41.6536 57.9473 40.9649 57.5441C40.1755 57.0906 39.1341 56.2676 38.1431 55.2934L36.5978 53.7649L39.4028 50.9598L42.2247 48.138L45.0297 50.943L47.8516 53.7649L45.3825 56.234ZM60.1132 53.2106V55.159L59.4917 55.3774C58.4839 55.6965 57.2409 56.3516 56.2667 57.0738L55.3765 57.7457L53.3777 55.7637L51.3789 53.7649L54.1839 50.9598L57.0058 48.138L58.5511 49.6833L60.1132 51.2454V53.2106ZM29.1232 49.9856L30.8029 51.6821L28.7033 50.4727C27.5443 49.8009 26.5701 49.2298 26.5365 49.1962C26.4526 49.129 27.2084 48.306 27.3428 48.306C27.41 48.306 28.1994 49.0618 29.1232 49.9856ZM53.1761 60.7523C52.857 61.3402 52.4539 62.1968 52.3027 62.6671C52.1347 63.1207 51.9332 63.5742 51.8828 63.6414C51.8156 63.7253 50.2703 62.9359 48.4562 61.8777L45.1641 59.9797L47.3813 57.7625L49.6152 55.5285L51.6812 57.5945L53.7472 59.6773L53.1761 60.7523ZM64.3963 57.8297C64.8666 57.9641 65.5889 58.3 66.0424 58.5687C66.4791 58.8375 66.9662 59.0558 67.1342 59.0558C67.2854 59.0558 68.0244 58.7535 68.7635 58.3672C71.4678 57.0066 73.9873 57.225 76.4228 59.0558C80.3028 61.9617 81.613 68.2101 79.379 73.1651C78.4216 75.3151 76.4396 77.2803 74.4912 78.0193C72.4588 78.7752 70.8127 78.6408 68.5619 77.5154L67.1678 76.8268L65.7569 77.5322C63.3045 78.7584 61.2889 78.8088 59.1894 77.7002C57.896 77.0115 57.1737 76.4236 56.3003 75.2647C52.8738 70.78 53.1257 64.0277 56.8714 60.0469C59.0214 57.7625 61.6585 56.9899 64.3963 57.8297ZM11.2347 60.0972C11.2347 61.1554 11.6882 61.7433 12.4777 61.7433C13.2839 61.7433 13.7542 61.1722 13.7542 60.198C13.7542 59.2406 13.8046 59.2238 15.3331 59.7949C18.1214 60.8027 20.4225 63.2214 21.3296 66.1105C21.5815 66.8831 21.6823 67.6726 21.6823 68.7979C21.7159 73.4338 18.5245 77.3307 13.9054 78.3049C9.11834 79.3295 4.02894 76.0877 2.75239 71.2167C2.43325 69.9905 2.43325 67.6558 2.75239 66.4464C3.62582 63.1374 6.39727 60.3828 9.73982 59.4926C11.2179 59.0894 11.2347 59.1062 11.2347 60.0972ZM51.0429 66.396C51.0429 66.7151 48.8762 69.3186 47.3645 70.8135C43.8372 74.3073 39.47 76.7092 34.5822 77.801C31.29 78.54 28.233 78.6576 25.008 78.1873C23.4795 77.9522 20.9768 77.3643 20.9768 77.2299C20.9936 77.1627 21.2456 76.8268 21.5647 76.4572L22.1358 75.819L24.1178 76.2053C27.9643 76.9611 33.0033 76.6588 36.5306 75.4494C41.5192 73.753 45.9031 70.5784 48.7418 66.5808L49.548 65.4722L50.2871 65.8921C50.707 66.1105 51.0429 66.3456 51.0429 66.396ZM51.5804 72.4764C51.2277 72.7452 48.4395 74.0889 47.8516 74.2569C47.566 74.3409 47.8684 73.9713 48.8594 73.0307C49.6488 72.2917 50.5558 71.351 50.875 70.9311L51.4629 70.1921L51.6644 71.2167C51.866 72.1405 51.8492 72.2581 51.5804 72.4764Z" fill="#2A2624"/>
<path d="M11.2684 46.2899C10.5461 46.5922 10.3949 47.768 10.9996 48.3727C11.3691 48.7422 12.4609 48.7254 12.7969 48.3391C13.2504 47.8352 13.1664 46.8778 12.6457 46.4747C12.1586 46.0883 11.873 46.0547 11.2684 46.2899Z" fill="#2A2624"/>
<path d="M19.2974 52.5051C19.0958 52.7066 18.9614 53.0594 18.9614 53.4289C18.9614 54.6382 20.4059 55.1757 21.1282 54.2519C21.5985 53.664 21.5649 53.0929 21.061 52.589C20.5571 52.0683 19.7677 52.0348 19.2974 52.5051Z" fill="#2A2624"/>
<path d="M25.1759 58.0141C24.6552 58.434 24.6384 59.4922 25.1591 59.9121C26.0325 60.6344 27.2587 60.0801 27.2587 58.9715C27.2587 57.8797 26.0325 57.3086 25.1759 58.0141Z" fill="#2A2624"/>
<path d="M32.6 62.3317C31.4746 62.8188 31.7266 64.4481 32.9863 64.7C33.7086 64.8344 34.414 64.2633 34.414 63.5243C34.414 62.4661 33.591 61.9286 32.6 62.3317Z" fill="#2A2624"/>
<path d="M40.0579 63.6249C39.638 64.2128 39.722 65.019 40.2259 65.4222C40.8138 65.8925 41.3849 65.8589 41.8888 65.355C42.7454 64.5151 42.1911 63.2554 40.9649 63.2554C40.4778 63.2554 40.2427 63.3562 40.0579 63.6249Z" fill="#2A2624"/>
<path d="M28.216 68.8986C27.7457 69.4865 27.7793 70.0576 28.2832 70.5615C29.1062 71.4013 30.3828 70.8974 30.3828 69.7216C30.3828 68.5123 28.9383 67.9748 28.216 68.8986Z" fill="#2A2624"/>
</svg>
