<svg width="83" height="84" viewBox="0 0 83 84" fill="none" xmlns="http://www.w3.org/2000/svg">
<path d="M30.561 0.376671C29.8217 0.880699 29.0993 2.30878 28.8641 3.80407C28.3601 7.08026 29.4689 13.1454 31.3506 17.2785C31.6699 17.9673 31.9219 18.5385 31.9219 18.5553C31.9219 18.5553 30.9138 18.5721 29.6873 18.5889C27.2848 18.5889 26.0415 18.8242 23.975 19.681C22.2445 20.3698 21.102 21.1259 19.6235 22.5036C18.2123 23.8308 17.3386 24.9733 16.5154 26.6366C16.2297 27.191 12.3991 38.8677 7.99727 52.5941C0.789646 75.0738 0 77.6444 0 78.6357C0 81.223 1.7809 82.9871 4.36826 83.0039C5.82994 83.0039 6.8548 82.4999 8.16528 81.139C9.25734 79.9965 41.196 44.7481 42.5569 43.1856C43.4977 42.1103 44.6738 39.8926 45.1946 38.2293C45.6651 36.7676 45.8499 33.1554 45.5475 31.5593C45.161 29.5096 44.2538 27.2246 43.1785 25.5949L42.8257 25.0741L44.1362 24.9565C48.5716 24.5701 53.8135 22.8564 56.8041 20.8235C59.8787 18.7402 60.5003 16.1696 58.2994 14.6575C56.7537 13.6158 52.6039 13.4478 48.6556 14.2711C47.7316 14.4727 46.9587 14.6071 46.9251 14.5735C46.9083 14.5399 47.0932 14.1031 47.362 13.599C47.6308 13.095 48.1348 12.0198 48.4708 11.1965C50.3189 6.55943 50.2349 3.24964 48.2188 2.22478C47.2948 1.73755 46.3875 1.82156 45.0266 2.4768C43.8506 3.04803 40.7088 6.18981 39.6503 7.86991C38.8943 9.06278 38.6423 9.298 38.6423 8.81077C38.6423 8.30674 37.1302 4.79533 36.3405 3.50166C35.4837 2.07357 34.2908 0.7799 33.4004 0.309471C32.6107 -0.127357 31.2666 -0.0937576 30.561 0.376671ZM33.0139 3.23284C34.4252 4.87933 35.7189 7.6011 36.5589 10.7093L36.9958 12.3894L36.3909 13.9183C35.8533 15.2455 35.2821 17.2281 35.0805 18.4041C35.03 18.6561 34.8452 18.4209 34.358 17.5641C32.5099 14.2879 31.065 8.40754 31.3002 5.06415C31.3842 3.65286 31.7707 2.5272 32.1571 2.5272C32.2915 2.5272 32.6779 2.84642 33.0139 3.23284ZM47.2612 5.71938C47.1604 9.19719 43.901 15.4976 40.4736 18.841C39.3479 19.9498 38.071 20.7563 37.7518 20.5547C37.4326 20.353 37.7518 17.6313 38.2726 16.136C39.9191 11.3813 43.6658 6.0386 46.3203 4.69453C47.1268 4.2745 47.2948 4.45931 47.2612 5.71938ZM55.0904 16.304C55.7793 16.4048 56.5185 16.5896 56.7369 16.724C57.1065 16.976 57.1065 17.0096 56.8545 17.4129C56.4849 17.9505 54.8384 19.1266 53.4439 19.8322C50.1005 21.4955 44.0858 22.7892 41.2632 22.4532L40.3224 22.3356L41.1288 21.6803C41.5824 21.3275 42.5737 20.3698 43.3465 19.5298C44.7074 18.0513 44.7914 18.0009 46.1019 17.5809C48.1012 16.9424 50.1341 16.5056 51.747 16.3376C53.6959 16.1192 53.6959 16.1192 55.0904 16.304ZM33.4004 21.4955C39.2135 23.1756 43.1785 28.3167 43.1785 34.1802C43.1785 36.8012 42.4561 39.0021 40.8768 41.1191C40.524 41.5895 38.0542 44.3952 35.3661 47.3522L30.4938 52.6949L26.6128 50.4604C22.5637 48.1251 21.9757 47.9067 21.3036 48.5115C20.9004 48.8643 20.9004 49.9396 21.3036 50.2756C21.4549 50.4268 23.2022 51.4685 25.1679 52.5941L28.7465 54.6606L28.1752 55.2655C27.856 55.6015 22.7485 61.2298 16.8178 67.799C10.887 74.3514 5.79634 79.8957 5.51072 80.0973C4.21705 81.055 2.52015 80.1981 2.52015 78.602C2.52015 78.0644 7.96367 60.709 8.23248 60.4402C8.29969 60.3562 9.57656 60.9946 11.0718 61.8347C13.3232 63.1283 13.844 63.3636 14.2304 63.2628C14.8689 63.1115 15.0873 62.9099 15.2049 62.3219C15.2889 61.9859 15.2217 61.6835 15.0537 61.4314C14.9193 61.213 13.6088 60.3394 12.1471 59.4993C10.6854 58.6593 9.39175 57.9032 9.27414 57.8192C9.08933 57.7184 9.94618 54.8791 13.2896 44.4288C15.6249 37.1372 17.5906 31.1057 17.641 31.0385C17.7082 30.9713 20.178 32.3153 23.1518 34.029C28.7633 37.2716 29.2505 37.4732 29.9394 36.8516C30.1242 36.6836 30.2418 36.3476 30.2418 35.9444C30.2418 35.1211 30.3594 35.2051 23.8238 31.4417L18.4979 28.3671L18.8843 27.5943C20.4972 24.4021 23.5718 22.1171 27.3856 21.2603C28.8809 20.9243 31.7875 21.0419 33.4004 21.4955Z" fill="#2A2624"/>
<path d="M62.4322 0.275467C62.281 0.409874 62.113 0.695496 62.0626 0.913902C62.0122 1.11552 61.9954 4.39171 62.029 8.17193C62.0962 15.9004 62.113 15.934 63.3731 17.8157C64.1459 18.975 65.6748 20.2182 66.7165 20.5207L67.3717 20.7223V29.8788V39.0353L66.3973 38.1113C65.8596 37.5905 65.0028 36.952 64.4988 36.7C63.6923 36.2632 63.4235 36.2128 61.9954 36.2128C60.5505 36.2128 60.2985 36.2632 59.4081 36.7168C57.4592 37.7081 55.611 40.0266 54.2502 43.1852L53.5109 44.8821L52.3349 44.7477C51.6964 44.6805 50.1843 44.6133 48.9747 44.6133C46.4545 44.6301 44.9088 44.9997 43.4135 45.9573C41.0614 47.4694 40.3053 50.292 41.3974 53.5178C42.0022 55.2819 43.0775 57.0964 44.8752 59.4149C44.9592 59.5157 44.6064 60.1206 44.0016 60.927C42.6743 62.6911 41.3974 65.2785 41.0614 66.8746C40.4398 69.8987 41.6662 72.5029 44.2872 73.7126C45.8833 74.435 47.3618 74.6534 50.0667 74.5358C51.4108 74.4854 52.7381 74.3846 53.0237 74.3342C53.5109 74.2502 53.5445 74.2838 53.8469 75.0566C55.275 78.9041 57.7952 81.9786 60.1809 82.7683C61.441 83.1883 63.3227 83.0539 64.5492 82.4491C66.4645 81.5082 68.3966 79.0889 69.7575 75.8967C70.4631 74.2502 70.4631 74.2334 70.9671 74.3342C71.2528 74.3846 72.58 74.4854 73.9241 74.5358C77.4355 74.687 79.5356 74.1494 81.2493 72.6877C82.3414 71.7468 82.879 70.5708 82.963 68.9075C83.0135 68.1346 82.9462 67.0762 82.8454 66.5553C82.543 65.1609 81.2997 62.7079 80.0565 61.0614C79.0988 59.8014 78.9812 59.5661 79.166 59.3141C81.2661 56.4916 82.4086 54.425 82.8118 52.7281C83.1143 51.4513 83.0471 49.5359 82.6438 48.4943C81.8206 46.2766 79.3844 44.8485 75.9906 44.5797L74.5962 44.4789V32.6174V20.7559L75.5034 20.3694C76.6627 19.8654 78.0572 18.6053 78.746 17.4629C79.7541 15.7828 79.8045 15.2955 79.8045 7.6175C79.8045 0.897102 79.7877 0.661888 79.4684 0.342674C79.2668 0.14106 78.914 0.00665283 78.5444 0.00665283C78.1748 0.00665283 77.8219 0.14106 77.6203 0.342674C77.3011 0.661888 77.2843 0.897102 77.2843 6.55904V12.4394H76.0242H74.7642V6.71024C74.7642 0.0570526 74.7474 0.00665283 73.3865 0.00665283C72.244 0.00665283 72.244 -0.0101471 72.244 6.59264V12.4394H70.9839H69.7407L69.6903 6.57584C69.6399 1.08192 69.6231 0.695496 69.3206 0.359474C68.9006 -0.0941544 67.8758 -0.127754 67.4893 0.309067C67.2373 0.594688 67.2037 1.26672 67.2037 6.52544V12.4394H65.8596H64.5156V6.50863C64.5156 0.96431 64.4988 0.544281 64.2131 0.292267C63.8267 -0.0605545 62.7683 -0.0773544 62.4322 0.275467ZM77.1163 14.8755C77.1163 15.2451 76.5115 16.2364 75.9234 16.8916C75.117 17.7653 74.3273 18.2357 73.3529 18.4205C73.0001 18.4709 72.5632 18.6725 72.3952 18.8406C72.0928 19.143 72.076 19.6974 72.076 31.9117V44.6469L71.5552 44.7645C70.5807 44.9493 70.4127 44.8989 70.1439 44.2604C69.9255 43.7396 69.8919 41.9755 69.8919 31.5253C69.8919 20.9239 69.8583 19.3614 69.6399 19.0422C69.4719 18.807 68.9846 18.5549 68.363 18.3869C66.7669 17.9333 65.5572 16.8916 64.9356 15.4132L64.6836 14.7915H70.8999C74.3105 14.7915 77.1163 14.8251 77.1163 14.8755ZM63.6755 39.2033C64.7844 39.8586 66.0781 41.4883 67.0189 43.4372C68.0438 45.5709 68.0606 45.4701 66.9181 45.8061C66.3805 45.9573 65.0532 46.411 63.9443 46.831L61.9618 47.587L60.6345 47.0662C59.8953 46.7806 58.5848 46.3102 57.6944 46.0245C55.8463 45.4197 55.8967 45.6381 57.0559 43.2692C58.4504 40.3962 60.3153 38.6489 61.9954 38.6489C62.5667 38.6489 63.0035 38.7833 63.6755 39.2033ZM51.562 47.2174C52.15 47.3014 52.6541 47.4022 52.6877 47.4358C52.7213 47.4694 52.6037 48.1415 52.4357 48.9143C52.2508 49.6872 51.9988 51.048 51.8644 51.9217L51.646 53.5178L50.2347 54.6603C49.4451 55.2987 48.3698 56.2395 47.8322 56.7604L46.8577 57.718L46.5217 57.298C45.6145 56.1723 44.304 54.005 43.9176 52.9802C42.7583 49.9224 43.7664 47.9735 46.8745 47.2846C48.0002 47.0326 50.1003 46.999 51.562 47.2174ZM78.0068 47.5534C79.2164 48.0071 80.0565 48.7295 80.3253 49.5191C80.6613 50.5776 80.4429 52.2409 79.7373 53.7026C79.1492 54.9291 77.3515 57.634 77.1163 57.634C77.0659 57.634 76.7131 57.3316 76.3603 56.9452C75.9906 56.5756 74.9322 55.6515 74.0081 54.8955L72.328 53.5514L72.1264 52.1065C72.0088 51.3169 71.7568 49.956 71.5552 49.0991C71.3704 48.2255 71.2528 47.4862 71.2864 47.4358C71.5048 47.2174 73.3193 47.0662 75.1002 47.1166C76.5955 47.167 77.2507 47.2678 78.0068 47.5534ZM69.035 49.3847C69.2366 50.208 69.3878 51.0312 69.3878 51.2329V51.6025L68.9342 51.2833C68.6654 51.0984 67.7246 50.544 66.8173 50.0232L65.1708 49.0991L65.8932 48.8303C66.2965 48.6791 67.0693 48.4103 67.6237 48.2423C68.1782 48.0575 68.6486 47.9063 68.6654 47.9063C68.6822 47.8895 68.8502 48.5615 69.035 49.3847ZM56.5351 48.3095C57.0055 48.4439 57.7112 48.6791 58.0976 48.8303L58.8368 49.0991L57.6776 49.7376C57.0559 50.0736 56.0815 50.628 55.527 50.964C54.9894 51.3001 54.519 51.5521 54.4854 51.5353C54.4518 51.4849 55.0566 48.6119 55.191 48.2591C55.2918 47.9903 55.5102 48.0071 56.5351 48.3095ZM63.3899 51.0984C66.7501 52.7953 69.8079 54.7779 69.9591 55.3659C70.1271 56.0379 70.0767 63.4304 69.9087 63.884C69.7071 64.4216 67.2205 66.0345 64.2131 67.597L61.945 68.7731L60.0801 67.7986C58.0304 66.7402 55.2078 65.0097 54.3846 64.3376L53.8637 63.9008V59.5661V55.2315L54.3174 54.8619C55.023 54.2402 57.7112 52.6105 59.8953 51.4681C61.0042 50.8968 61.9282 50.4096 61.9618 50.4096C61.9786 50.4096 62.6171 50.7288 63.3899 51.0984ZM51.3268 59.5661C51.3268 60.9102 51.2932 62.0023 51.2428 62.0023C51.1924 62.0023 50.5539 61.4478 49.8315 60.7758L48.5042 59.5493L49.8651 58.3397C50.6212 57.6676 51.2596 57.13 51.2932 57.13C51.31 57.13 51.3268 58.2221 51.3268 59.5661ZM74.4953 58.6925L75.4698 59.5829L74.1257 60.7926C73.3865 61.4646 72.748 62.0023 72.6808 62.0023C72.6304 62.0023 72.5968 60.9102 72.5968 59.5661V57.1132L73.0505 57.4492C73.3025 57.6508 73.9409 58.2053 74.4953 58.6925ZM50.1171 64.388C50.9236 65.0433 51.6124 65.7321 51.6628 65.9337C51.6964 66.1185 51.8476 67.0426 51.9988 67.9666C52.15 68.8907 52.3853 70.1004 52.5197 70.638C52.7213 71.4276 52.7381 71.6628 52.5701 71.7637C52.2004 71.9821 49.9155 72.1333 48.3194 72.0325C44.7744 71.8141 43.0271 70.218 43.4975 67.5802C43.7159 66.4041 44.9088 63.9512 45.9673 62.5567L46.7569 61.4983L47.6978 62.3383C48.2186 62.8087 49.2939 63.716 50.1171 64.388ZM78.0908 62.6911C79.4348 64.5224 80.3421 66.5049 80.4429 67.8826C80.5437 69.3275 80.2917 70.0836 79.4684 70.7724C78.578 71.5452 77.4355 71.9317 75.6714 72.0325C74.1257 72.1333 71.7904 71.9821 71.4376 71.7805C71.3032 71.6796 71.3536 71.1252 71.656 69.6467C71.8912 68.5379 72.1264 67.177 72.1768 66.6225L72.2944 65.6145L73.7897 64.4384C74.5962 63.8 75.6714 62.8759 76.1418 62.3887C76.6291 61.9015 77.0659 61.4983 77.1163 61.4983C77.1667 61.4983 77.6035 62.0359 78.0908 62.6911ZM57.2575 69.1763C58.0136 69.6131 58.6352 70.0163 58.6352 70.0668C58.6352 70.134 57.896 70.4028 57.0055 70.6884C55.8295 71.058 55.3254 71.1588 55.2582 71.0244C55.191 70.9068 55.023 70.218 54.855 69.4787C54.7038 68.7395 54.5358 68.0002 54.4854 67.8154C54.4182 67.5466 54.4854 67.5634 55.1238 67.9498C55.527 68.2018 56.4847 68.7563 57.2575 69.1763ZM69.1862 69.0755C68.6654 71.4612 68.867 71.2932 67.1533 70.7388C66.3469 70.4868 65.5572 70.218 65.406 70.1508C65.1876 70.0836 65.4732 69.8651 66.4477 69.3275C67.1869 68.9411 68.1782 68.3699 68.6318 68.0842C69.1022 67.7986 69.4887 67.5466 69.4887 67.5466C69.5055 67.5466 69.371 68.2354 69.1862 69.0755ZM63.0371 71.9821C63.5243 72.2005 64.818 72.6709 65.91 73.0069C68.195 73.7462 68.0942 73.4942 66.9349 75.8631C66.0949 77.6104 64.9188 79.1561 63.8939 79.8785C63.0875 80.433 61.861 80.6346 60.937 80.3322C60.1305 80.0633 58.9208 78.9713 58.0976 77.7448C57.4424 76.7871 56.1151 74.1494 56.1151 73.7966C56.1151 73.7126 56.8543 73.4101 57.7616 73.1245C58.652 72.8389 59.9289 72.3853 60.5673 72.0997C61.2226 71.8309 61.8274 71.5956 61.9282 71.5956C62.029 71.5788 62.533 71.7637 63.0371 71.9821Z" fill="#2A2624"/>
<path d="M60.1309 54.2065C59.0052 54.5929 57.7956 55.5842 57.1739 56.609C54.9058 60.3893 57.5436 65.1943 61.895 65.1943C64.768 65.1943 67.0193 63.363 67.5233 60.6077C67.977 58.1547 66.8513 55.769 64.6504 54.6097C63.7431 54.1225 63.3903 54.0385 62.2478 53.9881C61.3406 53.9545 60.6517 54.0217 60.1309 54.2065ZM63.2727 56.777C64.5328 57.3483 65.3224 58.894 65.0368 60.2044C64.4992 62.4894 61.7438 63.4638 60.0301 61.9517C59.4085 61.3973 58.8204 60.3221 58.8036 59.734C58.8036 59.0956 59.1565 58.1379 59.5933 57.6339C60.5341 56.5082 61.9622 56.189 63.2727 56.777Z" fill="#2A2624"/>
</svg>
