<svg width="83" height="84" viewBox="0 0 83 84" fill="none" xmlns="http://www.w3.org/2000/svg">
<path d="M30.7541 0.437332C26.6199 1.49607 23.2252 4.13453 21.5279 7.63005C20.6204 9.47865 20.3347 10.8231 20.3347 13.0582C20.3347 16.0496 20.9733 18.7216 22.4522 21.8306C22.8555 22.6877 23.1916 23.4272 23.1916 23.4608C23.1916 23.4944 20.8557 23.528 17.9988 23.528C12.8059 23.528 12.7891 23.528 12.537 23.8977C12.1505 24.4355 12.2009 25.2589 12.621 25.6455C12.9571 25.948 13.3437 25.9648 18.8894 26.0152L24.7881 26.0656L25.9141 27.6957C28.3509 31.1913 32.3674 35.6447 37.3082 40.3166C41.3415 44.1314 46.1479 48.4336 46.6688 48.7193C47.2402 49.005 48.551 49.005 49.1056 48.7193C49.9459 48.2656 59.8611 39.1402 62.3987 36.485L63.6927 35.1237H68.0453H72.3979L72.5156 35.5775C72.6836 36.2833 73.5575 37.5605 74.2129 38.0647C75.2885 38.8881 76.2464 39.2075 77.6748 39.2075C78.8176 39.2075 79.1369 39.1234 80.078 38.6697C81.1872 38.1151 82.0106 37.2916 82.6156 36.1321C83.0526 35.275 83.1366 33.0567 82.7669 31.9475C82.414 30.872 81.2208 29.5275 80.0948 28.9561C78.2462 28.015 75.7254 28.3175 74.1289 29.6788C73.3894 30.3174 72.4315 31.7963 72.4315 32.3004C72.4315 32.5861 72.1627 32.6029 69.2217 32.6029H65.9951L66.6169 31.8803C67.9277 30.351 70.5997 26.721 71.524 25.2085C73.4903 21.9651 74.8851 18.4191 75.3053 15.6126C75.6078 13.4783 75.4229 10.7727 74.8683 9.09213C73.3894 4.72272 69.3057 1.29441 64.3313 0.269279C62.6676 -0.0836372 59.2897 -0.0836372 57.4915 0.252472C54.0296 0.92469 51.3071 2.75648 48.8367 6.10076L47.8788 7.39478L46.8873 6.06715C44.9715 3.47911 43.0052 1.8658 40.6861 0.958302C38.8543 0.252472 37.2578 0.000392914 34.6529 0.000392914C32.7707 0.0171967 32.0481 0.101223 30.7541 0.437332ZM36.8376 2.60523C39.0392 2.79009 41.1902 3.78161 42.9716 5.42854C43.3918 5.81507 44.2488 6.82339 44.9042 7.68047C46.3327 9.59629 46.652 9.83157 47.8788 9.81476C49.1224 9.81476 49.5257 9.52907 50.8702 7.71408C53.6431 3.91606 56.3992 2.5044 61.0038 2.5044C63.9616 2.5044 66.2976 3.22703 68.4655 4.77313C71.2888 6.80659 72.734 9.34421 72.8853 12.5204C73.1542 17.8478 70.2972 23.7128 63.7767 31.2249L62.6004 32.5861L60.8526 32.5525L59.088 32.5189L57.878 27.3092C57.2226 24.4355 56.4664 21.2088 56.2143 20.0997C55.9286 18.8729 55.6261 17.9822 55.4412 17.7973C54.9875 17.3436 54.0464 17.3772 53.6599 17.8646C53.4918 18.083 52.6347 19.898 51.7609 21.8979C50.887 23.8977 50.1139 25.5446 50.0467 25.5446C49.9963 25.5446 49.3913 24.5363 48.7359 23.3095C48.0637 22.0995 47.3578 20.9231 47.173 20.7047C46.7865 20.2845 46.1142 20.2173 45.6101 20.5702C45.4252 20.7047 44.148 22.7381 42.77 25.1077C41.3919 27.4773 40.2155 29.3595 40.1651 29.2923C40.0979 29.2082 39.4257 25.5951 38.6694 21.2593C37.3922 13.9321 37.2578 13.3271 36.8713 12.9742C36.3671 12.5372 35.7957 12.5036 35.3083 12.8902C35.1067 13.075 34.1152 15.2597 32.8716 18.3183L30.7877 23.444H28.4685H26.1326L25.1075 21.4273C23.5109 18.2343 22.8555 15.8311 22.8555 13.1422C22.8555 10.2013 23.6622 8.26866 25.7965 6.11757C27.309 4.58827 28.7374 3.71439 30.7205 3.07578C32.0649 2.65565 34.0984 2.36996 35.1235 2.45398C35.4428 2.48759 36.2158 2.55482 36.8376 2.60523ZM36.9721 26.2169C37.8964 31.4097 38.4174 33.9642 38.6022 34.149C39.0223 34.6196 40.0643 34.5523 40.4844 34.0314C40.6693 33.7961 42.0473 31.477 43.543 28.8889L46.2655 24.2002L47.2738 25.9984C47.8284 27.0067 48.5006 28.2167 48.8031 28.7209C49.4081 29.7796 49.9627 30.0653 50.7021 29.7124C51.0886 29.5275 51.4248 28.9225 52.6347 26.2169C53.4414 24.4187 54.1304 22.8726 54.164 22.8054C54.1808 22.7213 54.8026 25.2926 55.5421 28.5024C56.3151 31.8635 57.0042 34.4851 57.1554 34.6868C57.3907 34.9725 57.6764 35.0397 58.7351 35.0901L60.0291 35.1573L58.9704 36.2497C56.5672 38.6865 48.1477 46.3834 47.8788 46.3834C47.6099 46.3834 41.1062 40.4342 37.409 36.8043C33.6278 33.0735 31.4095 30.6703 29.2584 27.8974L27.8972 26.1328L29.9474 26.0488C31.0902 25.9984 32.1657 25.8807 32.3506 25.7631C32.5859 25.6455 33.1741 24.4019 34.1152 22.0491C34.905 20.0997 35.5604 18.5368 35.5772 18.5536C35.594 18.5704 36.2326 22.0155 36.9721 26.2169ZM79.1033 31.3425C79.994 31.8635 80.4981 32.7878 80.4981 33.8633C80.4981 34.7876 80.1956 35.4262 79.4898 36.0312C77.5908 37.6277 74.7843 36.2665 74.7843 33.7457C74.7843 31.5946 77.2043 30.2502 79.1033 31.3425Z" fill="#2A2624"/>
<path d="M28.9389 46.4005C26.9055 46.7534 25.2754 47.4424 17.4104 51.2405L13.5452 53.0891L12.957 51.8791C12.1503 50.2489 11.3773 49.6944 9.76395 49.6103C8.65479 49.5431 8.53716 49.5767 5.10885 50.9884C2.99137 51.8623 1.41166 52.6185 1.12596 52.9042C0.352914 53.6436 0 54.4839 0 55.6435C0 56.6014 0.302498 57.3744 5.04163 68.7853C7.81452 75.4571 10.3017 81.2214 10.5538 81.5743C11.2092 82.5154 12.2344 83.0195 13.5116 83.0195C14.4023 83.0195 14.9568 82.8347 17.965 81.5911C20.0657 80.7172 21.595 79.9946 21.8975 79.7089C23.1075 78.5493 23.3763 76.8351 22.6369 75.0033L22.2168 73.9782L24.5695 72.8522C28.1323 71.1213 27.6449 71.1045 35.9804 73.5413C42.5345 75.4571 42.837 75.5243 44.652 75.5915C46.7023 75.6588 48.2316 75.4403 50.6516 74.6672C51.9288 74.2639 75.4228 65.273 78.1284 64.147C79.8594 63.4412 81.4223 61.9119 82.2962 60.0633C82.918 58.7693 82.9348 58.6853 82.9348 56.8031C82.9348 55.0385 82.9012 54.8032 82.481 54.0302C81.0358 51.3077 77.8932 50.2658 73.3557 51.0052C72.5154 51.1396 68.1292 52.3328 63.6085 53.6604L55.3739 56.0636L54.9369 55.3746C54.4664 54.6352 53.3572 53.6604 52.5002 53.2235C52.2313 53.0723 49.4248 52.2824 46.2821 51.4253C41.6102 50.1817 40.4339 49.7952 39.7448 49.3415C36.7703 47.3752 34.0646 46.3669 31.5102 46.2829C30.5859 46.2661 29.4263 46.2997 28.9389 46.4005ZM32.7874 48.9717C34.3167 49.3078 35.9972 50.0473 37.8962 51.2405L39.4928 52.2488L45.257 53.7949C48.4164 54.6352 51.1893 55.425 51.4246 55.5427C52.0464 55.8788 52.8867 56.8031 53.1724 57.5089C53.5085 58.2819 53.5253 59.66 53.2228 60.3826C52.6514 61.7271 51.0549 62.853 49.6936 62.853C49.3407 62.853 45.6772 61.9455 41.543 60.8364C37.4089 59.7272 33.8293 58.8197 33.5772 58.8197C32.5857 58.8197 32.0311 60.2482 32.7538 60.9036C33.2579 61.3573 48.3996 65.3738 49.5928 65.3738C53.0043 65.3738 55.9621 62.5673 55.9621 59.3239V58.5508L63.8606 56.2317C73.8767 53.2907 73.4733 53.3916 75.7925 53.3748C77.5907 53.358 77.7923 53.3916 78.6998 53.8285C79.4224 54.1982 79.7586 54.4839 80.0947 55.0553C80.498 55.7275 80.5316 55.946 80.4644 57.0215C80.3467 58.7357 79.4561 60.2986 77.9604 61.3573C77.6915 61.5422 72.7675 63.5084 67.02 65.7267C47.4249 73.2892 47.7778 73.1716 44.8705 73.0539C43.2068 72.9867 42.7194 72.8691 36.7199 71.1045C28.0315 68.5333 27.6281 68.5164 23.494 70.5331C22.284 71.1213 21.2589 71.575 21.2253 71.5414C21.1916 71.5078 19.6623 67.8778 17.8306 63.458L14.4863 55.4418L15.0241 55.2234C15.3097 55.0889 17.7801 53.9125 20.5026 52.6017C25.6451 50.1313 26.5862 49.7112 27.9642 49.291C29.9137 48.7029 31.1237 48.6188 32.7874 48.9717ZM10.3017 52.4C10.7051 52.8538 20.5026 76.4654 20.5026 77.0032C20.5026 77.2721 20.3514 77.6082 20.1665 77.7594C19.6623 78.1964 14.0998 80.4819 13.5116 80.4987C13.2259 80.4987 12.873 80.3643 12.7217 80.1962C12.3184 79.7425 2.52081 56.1308 2.52081 55.5931C2.52081 55.3242 2.67206 54.9881 2.85692 54.8368C3.36109 54.3999 8.92368 52.1312 9.51187 52.1144C9.81437 52.0975 10.1505 52.232 10.3017 52.4Z" fill="#2A2624"/>
</svg>
