<svg width="80" height="80" viewBox="0 0 80 80" fill="none" xmlns="http://www.w3.org/2000/svg">
<path d="M25.582 0.299423C21.388 1.23917 17.7508 3.2579 14.8619 6.25117C13.0521 8.13066 12.1471 9.6447 11.3292 12.1507C10.6679 14.152 10.5983 15.9271 10.6505 27.6391C10.7027 38.7073 10.7027 38.8813 11.0855 39.6818C11.5902 40.7782 12.704 41.8224 13.8526 42.2574C14.6879 42.5533 15.21 42.6055 18.0118 42.6055H21.2313V43.1972V43.8063L14.044 46.1557C10.0936 47.4435 6.47382 48.7139 6.00395 48.9749C3.86341 50.1061 2.21015 51.8464 1.13118 54.1261C0.0522082 56.4059 0 56.9976 0 67.8917C0 77.0455 0.0348055 77.7242 0.330652 78.3855C0.50468 78.7858 0.922346 79.2905 1.23559 79.5167L1.82729 79.9344L30.9769 79.9866C57.1332 80.0214 60.2657 80.004 61.5187 79.743C65.1211 79.0294 68.5146 76.9585 70.5507 74.2611C71.4383 73.0777 71.5253 72.7122 70.9858 72.1728C70.5159 71.7029 69.8372 71.8421 69.3499 72.5034C67.5923 74.8876 64.7382 76.8367 61.7971 77.6198C60.0221 78.1071 56.9766 78.1245 55.2537 77.6894C50.3461 76.4364 46.5001 72.6078 45.2297 67.7351C44.7947 66.0296 44.7599 63.2103 45.1427 61.5397C46.3261 56.4755 50.0503 52.6295 55.0971 51.2895C57.168 50.7326 59.9699 50.7674 62.0408 51.3939C66.5481 52.7339 69.9068 55.9534 71.3339 60.3389C71.5427 60.948 71.6819 61.4875 71.6471 61.5049C71.6123 61.5397 70.7074 60.6173 69.6284 59.4862C68.0099 57.7633 67.5923 57.3978 67.1746 57.3978C66.6351 57.3978 66.1304 57.9199 66.1304 58.4768C66.1304 58.9119 72.3258 65.3857 72.8653 65.5075C73.631 65.6989 73.8921 65.1769 75.1799 60.8784C76.4329 56.6669 76.5547 56.0578 76.1892 55.6924C75.9108 55.4139 74.9188 55.4313 74.6926 55.6924C74.5882 55.8142 74.2575 56.7887 73.9443 57.8677L73.3874 59.7994L72.8305 58.529C72.0822 56.8061 71.4731 55.7794 70.4289 54.4916C68.1666 51.6723 64.599 49.6362 60.8226 49.0271C59.3608 48.8009 56.0368 48.9053 54.9579 49.2185C54.3836 49.3926 54.1922 49.3578 53.3046 48.9053C52.7477 48.6268 49.1105 47.3564 45.2123 46.0686L38.112 43.7541V43.1972V42.6229L41.6448 42.5707C45.0731 42.5185 45.1775 42.5011 46.0477 42.0486C46.97 41.5613 47.8053 40.726 48.3274 39.7688C48.6233 39.2468 48.6407 38.2548 48.6929 26.1599C48.7277 16.7276 48.6929 12.8468 48.5537 12.1507C47.9446 9.31404 45.6822 6.80805 42.9848 5.97272C42.7411 5.90311 42.0798 5.43324 41.5056 4.92856C38.9473 2.71841 36.6502 1.3958 33.8483 0.560471C31.7078 -0.0660324 27.827 -0.187851 25.582 0.299423ZM31.3423 2.14412C34.6315 2.63139 37.6943 4.18024 40.4614 6.77325C40.9835 7.24313 41.6796 7.69559 42.1843 7.85222C44.5858 8.67015 46.0999 10.3408 46.622 12.812C46.883 14.0302 46.883 37.5413 46.6394 38.4636C46.4131 39.2468 45.3342 40.2561 44.4292 40.4998C44.0638 40.6042 42.4975 40.6912 40.9487 40.6912H38.112V40.0995C38.112 39.6122 38.2512 39.4034 38.9125 38.8639C40.9487 37.1932 43.0022 33.7823 43.6809 30.9457C43.9941 29.6231 44.0289 28.8921 44.0289 23.8801C44.0289 19.6165 43.9767 18.2417 43.8201 18.1024C43.6983 18.0154 43.0022 17.8936 42.2887 17.8588C40.2177 17.7196 38.4427 16.5884 37.2941 14.6393C36.7024 13.6299 36.1977 13.6299 34.6489 14.6567C31.9166 16.4666 29.0974 17.6152 26.0345 18.1546C23.9462 18.5201 20.2046 18.5027 17.9596 18.1198C16.637 17.8936 16.0801 17.8762 15.8713 18.0154C15.6103 18.172 15.5755 18.6941 15.6103 23.8279C15.6451 29.188 15.6625 29.5534 16.0627 31.1371C16.3064 32.042 16.8111 33.4168 17.1939 34.2C17.977 35.7314 19.6477 37.9416 20.6049 38.7247C21.1443 39.1423 21.2313 39.3164 21.2313 39.9603V40.7086L18.1511 40.6564C14.6705 40.6042 14.1136 40.4476 13.2609 39.3338L12.791 38.7247L12.7388 26.9604C12.6866 13.7691 12.6866 13.8214 13.9048 11.1935C14.7575 9.38366 15.9235 7.85222 17.4724 6.56441C20.4308 4.05842 23.9462 2.47477 27.4789 2.05711C29.2192 1.86568 29.5325 1.86568 31.3423 2.14412ZM36.9982 17.5107C38.3731 18.8682 39.7479 19.6165 41.1923 19.7557L42.1494 19.8601L42.0624 24.7503C42.0102 29.1706 41.958 29.7623 41.61 30.9457C40.357 35.1571 36.9112 38.7073 32.9086 39.8907C27.5834 41.4569 21.4924 38.4462 18.882 32.947C17.8552 30.7716 17.7334 30.0755 17.5768 24.9417C17.4898 22.3661 17.455 20.2256 17.4724 20.1908C17.5072 20.1734 18.3425 20.243 19.3344 20.3474C22.641 20.7128 26.5044 20.33 29.6543 19.338C31.2901 18.8333 33.8483 17.65 34.9795 16.8842C35.4146 16.5884 35.78 16.3448 35.78 16.3448C35.7974 16.3274 36.3543 16.8668 36.9982 17.5107ZM27.3919 42.1008C29.8631 42.5185 33.0826 42.1356 35.3624 41.1437C35.7278 40.987 36.0585 40.8652 36.1107 40.8652C36.1629 40.8652 36.1977 41.5613 36.1977 42.4141V43.9455L32.9782 46.2427C30.8899 47.7567 29.6891 48.505 29.5499 48.418C29.428 48.331 27.9662 47.3042 26.3304 46.1209L23.3197 43.9803V42.3445V40.726L24.7641 41.3003C25.5472 41.6309 26.7306 41.979 27.3919 42.1008ZM25.1122 47.7915L27.9836 49.8624L25.3558 51.7245C23.9114 52.7687 22.641 53.6388 22.5192 53.691C22.4147 53.7259 20.9703 52.3684 19.3344 50.663L16.3412 47.5653L19.0038 46.6603C20.4656 46.1731 21.7882 45.7554 21.9449 45.7554C22.1015 45.738 23.5111 46.6603 25.1122 47.7915ZM40.3918 46.6429L43.124 47.5479L40.1481 50.6456C38.5123 52.351 37.0853 53.7259 36.9808 53.7084C36.8938 53.6736 35.606 52.8035 34.1442 51.7593L31.499 49.845L32.4039 49.2011C32.9086 48.8531 34.1964 47.9307 35.2406 47.1476C36.3021 46.3819 37.2767 45.7554 37.4159 45.738C37.5551 45.738 38.8951 46.1383 40.3918 46.6429ZM17.8378 52.09C22.5192 56.8932 21.8753 56.7713 26.2259 53.6388L28.7145 51.8464V64.968V78.1071H20.4482H12.1819V73.2865C12.1819 69.0577 12.1471 68.4312 11.8861 68.1527C11.538 67.7699 11.1552 67.7525 10.6505 68.1179C10.2676 68.379 10.2676 68.4138 10.2676 73.2517V78.1071H6.56084C3.49795 78.1071 2.80184 78.0549 2.47119 77.8287L2.08833 77.5676V67.6132C2.08833 56.6321 2.08833 56.5973 3.1847 54.5438C3.84601 53.2908 5.32524 51.7419 6.52603 51.0284C7.30915 50.5586 13.3131 48.4006 13.9222 48.3484C14.0614 48.3484 15.8365 50.0191 17.8378 52.09ZM48.6059 49.323C51.1293 50.1583 51.5469 50.3497 51.2685 50.5063C47.6661 52.5947 45.1949 55.3791 43.8549 58.8249C42.0102 63.5758 42.7237 69.3535 45.6648 73.478C46.6568 74.8702 48.3448 76.5234 49.6848 77.411L50.729 78.1071H40.7746H30.8029V65.055C30.8029 57.8677 30.8377 52.003 30.8899 52.003C30.9421 52.003 31.9688 52.7165 33.187 53.5866C34.4052 54.4568 35.6234 55.3269 35.9193 55.5009C36.5284 55.8664 37.5029 55.9186 38.0424 55.6053C38.2512 55.4835 39.9567 53.8129 41.8536 51.8638C43.7331 49.9321 45.369 48.3484 45.456 48.3484C45.543 48.3484 46.97 48.7835 48.6059 49.323Z" fill="#2A2624"/>
<path d="M65.1731 8.21774C65.0165 8.44398 64.7729 9.17489 64.6162 9.8536L64.3204 11.0718L63.5547 10.3931C62.5453 9.50555 61.1705 8.87905 59.5694 8.54839C57.4289 8.11333 57.046 8.53099 57.4985 10.7063C58.1772 13.9781 60.2133 16.1534 63.2762 16.8843L64.1638 17.0931L64.3378 18.0155C64.4248 18.5202 64.4944 18.9378 64.4944 18.9378C64.477 18.9378 63.9897 18.7812 63.3981 18.5898C61.0661 17.8589 58.7167 17.9633 56.785 18.8856C52.2255 21.0088 50.6592 27.848 53.1652 34.5307C54.453 37.9764 56.8198 41.0567 58.9255 42.0313C59.8305 42.4663 60.1611 42.5186 61.623 42.5186C63.224 42.5186 63.3458 42.4837 64.6336 41.8398L65.9737 41.1611L67.3137 41.8398C68.6015 42.5012 68.7233 42.5186 70.394 42.5186C71.9776 42.5186 72.2212 42.4663 73.074 42.0139C75.0579 40.9871 76.6589 39.0554 78.173 35.9055C79.4434 33.2081 79.9307 31.2068 79.9481 28.4223C79.9655 24.8548 79.1475 22.401 77.3377 20.5041C75.0579 18.1199 71.734 17.4934 68.0794 18.7464L66.6698 19.2337L66.4435 18.3461C66.3043 17.7893 66.2173 16.397 66.2173 14.5871C66.2173 12.0986 66.2695 11.5069 66.635 10.1146C67.0526 8.54839 67.0526 8.49619 66.7394 8.14813C66.3043 7.66085 65.5038 7.69566 65.1731 8.21774ZM61.0835 11.1936C62.3191 11.8201 63.311 13.0731 63.7809 14.5523C63.8853 14.9352 63.8679 14.9526 63.4851 14.8482C61.6404 14.3087 60.1959 12.8469 59.6043 10.9674C59.4998 10.5845 59.5172 10.5671 59.9001 10.6715C60.1089 10.7411 60.6484 10.9848 61.0835 11.1936ZM63.6591 20.8347C64.8947 21.322 65.2601 21.3916 66.2695 21.322C67.0352 21.2872 67.8183 21.0958 68.5667 20.7651C71.5077 19.4947 74.8491 20.243 76.4153 22.5402C77.3899 23.9324 77.8249 25.5335 77.9119 27.9002C77.9816 29.7275 77.9293 30.1974 77.5465 31.7289C77.0244 33.7476 75.7192 36.5146 74.5706 38.0286C73.6483 39.2642 72.0472 40.4302 71.0031 40.6043C70.0633 40.7609 69.3846 40.5868 68.0446 39.8733C66.4783 39.0206 65.5908 39.0206 63.9375 39.8559C62.3365 40.6913 61.6926 40.7957 60.4918 40.4476C58.6123 39.8907 56.5066 37.3499 55.184 34.0434C54.3834 32.0769 54.105 30.8587 54.0006 28.9444C53.7743 24.5763 55.5146 21.3394 58.6471 20.3127C58.8907 20.2256 59.7957 20.1908 60.6484 20.2256C61.9188 20.2604 62.4757 20.3823 63.6591 20.8347Z" fill="#2A2624"/>
<path d="M57.7072 54.1956C57.4636 54.4218 57.4288 55.1005 57.4288 58.9814V63.4887H53.548C50.7636 63.4887 49.615 63.5409 49.4583 63.6975C49.1799 63.9759 49.1799 64.9157 49.4583 65.1941C49.7542 65.49 58.8384 65.49 59.1343 65.1941C59.4301 64.8983 59.4301 54.4218 59.1343 54.126C58.8384 53.8301 58.0205 53.8649 57.7072 54.1956Z" fill="#2A2624"/>
</svg>
