<svg width="38" height="36" viewBox="0 0 38 36" fill="none" xmlns="http://www.w3.org/2000/svg">
<path d="M6.35827 35.7127H25.7367C27.4224 35.7105 29.0384 35.04 30.2303 33.848C31.4223 32.6561 32.0929 31.0401 32.095 29.3544V20.5721C32.0785 20.1816 31.9117 19.8126 31.6295 19.5421C31.3473 19.2716 30.9716 19.1206 30.5807 19.1206C30.1898 19.1206 29.814 19.2716 29.5318 19.5421C29.2497 19.8126 29.0829 20.1816 29.0664 20.5721V29.3544C29.0649 30.237 28.7137 31.0831 28.0896 31.7072C27.4654 32.3313 26.6194 32.6826 25.7367 32.684H6.35827C5.47564 32.6826 4.62957 32.3313 4.00546 31.7072C3.38134 31.0831 3.03008 30.237 3.02865 29.3544V9.97594C3.03008 9.09331 3.38134 8.24725 4.00546 7.62313C4.62957 6.99902 5.47564 6.64776 6.35827 6.64633H20.4386C20.8292 6.6298 21.1982 6.46303 21.4687 6.18084C21.7392 5.89866 21.8902 5.52289 21.8902 5.132C21.8902 4.74111 21.7392 4.36534 21.4687 4.08316C21.1982 3.80098 20.8292 3.6342 20.4386 3.61768H6.35827C4.67261 3.61983 3.05661 4.29041 1.86467 5.48235C0.67273 6.67429 0.00215236 8.29029 0 9.97594L0 29.3544C0.00215236 31.0401 0.67273 32.6561 1.86467 33.848C3.05661 35.04 4.67261 35.7105 6.35827 35.7127Z" fill="#8ECE34"/>
<path d="M13.1911 14.9596C12.9346 14.6474 12.6182 14.3897 12.2606 14.2017C11.903 14.0136 11.5114 13.899 11.1088 13.8646C10.7063 13.8302 10.3009 13.8767 9.91655 14.0013C9.53222 14.126 9.17672 14.3263 8.87098 14.5904C8.56523 14.8545 8.31543 15.1772 8.13628 15.5393C7.95713 15.9015 7.85224 16.2958 7.82781 16.6991C7.80337 17.1024 7.85988 17.5065 7.994 17.8876C8.12812 18.2687 8.33715 18.6192 8.60876 18.9183L14.6254 25.8839C14.91 26.2124 15.2618 26.4758 15.6571 26.6564C16.0524 26.8369 16.4819 26.9304 16.9165 26.9304C17.3511 26.9304 17.7806 26.8369 18.1759 26.6564C18.5713 26.4758 18.9231 26.2124 19.2077 25.8839L37.2603 5.00603C37.5202 4.70533 37.7184 4.35638 37.8434 3.9791C37.9685 3.60182 38.018 3.2036 37.9892 2.80717C37.9604 2.41075 37.8538 2.02388 37.6754 1.66867C37.4971 1.31345 37.2505 0.996837 36.9498 0.736907C36.6491 0.476978 36.3002 0.278821 35.9229 0.15375C35.5456 0.0286785 35.1474 -0.0208568 34.751 0.00797181C34.3545 0.0368004 33.9677 0.143428 33.6125 0.321768C33.2572 0.500107 32.9406 0.746665 32.6807 1.04736L16.9165 19.2735L13.1911 14.9596Z" fill="#8ECE34"/>
</svg>
