<svg width="83" height="80" viewBox="0 0 83 80" fill="none" xmlns="http://www.w3.org/2000/svg">
<path d="M37.5205 0.278C33.9308 0.891319 31.1528 3.25439 29.854 6.84409C29.7097 7.25897 29.5113 8.75619 29.4391 10.2714C29.2407 13.5725 29.0423 14.5827 28.2306 16.3685C27.5812 17.7755 27.5812 17.7755 26.8957 17.7755C26.12 17.7755 26.1922 17.9559 25.7593 15.4666C25.3263 13.0314 24.3703 11.6785 22.4041 10.7044C21.5923 10.2895 21.5562 10.2895 12.9337 10.2895H4.27517L3.265 10.7585C1.15448 11.7506 0.0180387 13.5364 0 15.8995C0 17.072 0.0721548 17.4328 0.559199 18.4069C1.24467 19.7778 2.2368 20.6978 3.5897 21.2029C4.4736 21.5276 4.99672 21.5637 9.86716 21.5637H15.1886L15.2788 21.9605C15.3148 22.195 16.776 31.4308 18.5257 42.4885C20.2575 53.5463 21.8088 63.0166 21.9531 63.5397C22.3139 64.7302 23.5585 66.1373 24.8212 66.7506L25.7593 67.2196L25.3444 68.4282C24.8032 70.0336 24.7852 72.2704 25.2902 73.948C26.0479 76.3472 28.1223 78.584 30.4674 79.4679C31.7661 79.9549 34.039 80.1353 35.446 79.8467C37.8813 79.3235 40.3345 77.4656 41.4349 75.3009C42.4811 73.2445 42.6795 70.3403 41.9039 68.3019L41.5611 67.3819H50.1295C58.2109 67.3819 58.6979 67.4 58.6077 67.7066C57.6877 70.6109 57.7238 72.6673 58.6979 74.9582C59.4014 76.5817 61.3496 78.4938 63.0813 79.2694C65.282 80.2435 68.0961 80.2435 70.2968 79.2694C72.0826 78.4757 73.9767 76.5997 74.7163 74.85C75.5641 72.9018 75.6543 70.214 74.9147 68.1937C74.7163 67.6164 74.5359 67.1114 74.5359 67.0753C74.5359 67.0572 74.7884 66.8949 75.0951 66.7506C77.6025 65.4518 78.793 62.2589 77.7828 59.5712C77.2778 58.2363 75.9609 56.8654 74.7343 56.4324L73.8504 56.1258L74.2653 55.5666C75.077 54.5203 75.8347 52.5902 76.1774 50.7322C76.4841 49.1268 79.0095 34.2809 79.3342 32.2967C79.4244 31.6653 79.5506 31.503 80.3624 31.034C81.5168 30.3665 82.3827 29.2301 82.7615 27.9313C82.996 27.1557 83.0321 26.3619 82.978 24.2875C82.9058 21.8703 82.8698 21.5817 82.4188 20.7339C82.0039 19.9221 80.4886 18.3167 80.1279 18.3167C80.0738 18.3167 80.0557 17.8296 80.0918 17.2524C80.2541 15.1238 79.3522 12.2016 78.0354 10.4699L77.5483 9.82047L78.7389 8.61188C79.6047 7.70995 79.9475 7.20486 80.0377 6.69978C80.5247 4.12024 78.3601 2.04579 75.997 2.85754C75.2394 3.12811 75.2033 3.12811 74.4818 2.605C73.5798 1.97364 72.1548 1.68502 71.2709 1.97364C70.2968 2.2803 69.8097 3.41673 69.8819 5.16649L69.936 6.53743L69.1243 6.55547C67.8616 6.60958 66.6169 6.93428 65.3361 7.54759C63.857 8.25111 61.8547 10.1993 60.9708 11.8047C60.1951 13.1937 60.159 13.1396 59.9426 10.0009C59.69 6.46527 58.9504 4.71552 56.858 2.73126C54.0078 0.0254593 49.7868 -0.605896 46.161 1.14386L44.772 1.82933L43.365 1.14386C41.4529 0.205849 39.5949 -0.0647354 37.5205 0.278ZM40.4247 2.62303C40.9478 2.71323 41.7415 2.96577 42.1925 3.16419L43.0042 3.52496L42.6435 4.01201C42.1203 4.76964 41.4168 6.23077 41.1823 7.04251C41.0741 7.43936 40.8937 8.79227 40.8035 10.0369C40.5871 12.7247 40.1361 14.6729 39.2702 16.4587L38.6569 17.7755H34.4719C30.5756 17.7755 30.305 17.7575 30.4313 17.4508C31.3152 15.2682 31.5677 13.9874 31.7481 10.6322C31.8924 8.08875 31.9465 7.85425 32.5057 6.71781C33.4798 4.73356 35.2296 3.3085 37.4303 2.71323C38.5848 2.40656 39.2161 2.38853 40.4247 2.62303ZM52.7451 2.89361C53.9177 3.3085 55.3427 4.37279 56.0643 5.36491C57.0925 6.73586 57.4172 7.83621 57.5975 10.3616C57.7779 12.8329 58.2289 14.9976 58.9144 16.6932L59.3653 17.7936L58.8061 17.7395C58.3011 17.6853 58.2109 17.5771 57.796 16.5128C57.1827 14.8893 56.7136 12.4902 56.5693 10.2354C56.4972 9.06284 56.3168 7.92641 56.1003 7.36721C55.6313 6.1045 54.3867 4.75159 53.1059 4.12024C52.204 3.66927 51.8793 3.61516 50.364 3.61516C48.7586 3.61516 48.5782 3.65124 47.5139 4.22848C46.8826 4.57121 46.0889 5.18452 45.7461 5.58138C44.6458 6.86212 44.4113 7.60171 44.1407 10.5059C43.8881 13.1937 43.4913 15.1058 42.8239 16.7834C42.5172 17.5591 42.3909 17.6853 41.9219 17.7395L41.3627 17.7936L41.8137 16.6932C42.4992 15.0156 42.9321 12.869 43.1305 10.3797C43.347 7.4574 43.7438 6.39312 45.1328 4.8959C46.2512 3.70535 47.5861 2.91165 48.9209 2.62303C49.9311 2.42461 51.7169 2.55087 52.7451 2.89361ZM73.1649 4.62533C74.1029 5.36491 74.59 7.13271 73.8504 7.13271C73.0387 7.13271 72.1908 5.99627 72.1908 4.87787C72.1908 4.13828 72.4614 4.06612 73.1649 4.62533ZM77.386 5.25668C77.9452 5.63549 77.873 6.15862 77.2056 6.78997L76.6103 7.33113L76.5021 6.28488C76.3758 4.9861 76.6103 4.71552 77.386 5.25668ZM51.771 6.15862C53.4306 6.84409 54.062 7.98052 54.2243 10.5601C54.3686 12.7067 54.9098 15.5748 55.3968 16.8916L55.7396 17.7755H50.4181H45.0967L45.205 17.3606C45.8544 15.178 46.2512 13.2117 46.3955 11.3898C46.63 8.66599 46.8104 8.0166 47.532 7.18682C48.5962 5.97823 50.3279 5.5453 51.771 6.15862ZM72.281 9.20715C75.3657 10.073 77.7648 13.3921 77.7828 16.8195V17.7755H69.936H62.0892L61.6382 16.8556C61.2233 16.0438 61.1872 15.8995 61.4217 15.647C61.5661 15.4666 62.1253 14.5646 62.6845 13.6266C65.0475 9.58597 68.2765 8.08875 72.281 9.20715ZM21.5202 12.9592C21.9531 13.1937 22.5303 13.6988 22.8009 14.0956C23.2699 14.7631 23.4683 15.8274 26.6612 36.175C29.854 56.5226 30.0344 57.5689 30.4674 57.9477L30.9003 58.3626H52.0957C72.5336 58.3626 73.3092 58.3806 73.9586 58.7053C76.5562 60.0402 76.3578 63.5938 73.6159 64.7483C72.9846 65.0008 72.9485 65.0008 72.3532 64.5138C70.6936 63.1609 68.8537 62.5115 66.689 62.5115C64.5244 62.5115 62.6845 63.1609 61.0069 64.5318L60.3755 65.0369H50.1295H39.8655L39.144 64.4236C37.5566 63.0526 35.446 62.4213 33.0649 62.5656C31.1709 62.6738 29.836 63.1428 28.3388 64.2612C27.2565 65.0549 27.2023 65.073 26.5169 64.8746C25.6691 64.604 24.5867 63.702 24.2801 62.9625C24.1538 62.6558 22.5484 52.8427 20.7084 41.1356C17.696 22.1409 17.2991 19.8139 16.9744 19.5253C16.6317 19.2547 16.0544 19.2186 10.733 19.2186C5.33945 19.2186 4.83437 19.2006 4.22105 18.8759C2.95835 18.2265 2.36307 17.2524 2.34503 15.8634C2.34503 14.4925 3.37324 13.1216 4.69006 12.7247C4.96064 12.6345 8.67661 12.5623 12.9518 12.5623L20.7265 12.5443L21.5202 12.9592ZM78.7389 20.3731C79.5326 20.6978 80.4526 21.7801 80.5969 22.5558C80.651 22.8985 80.6871 24.1432 80.651 25.3157C80.5788 27.3541 80.5608 27.4803 80.0557 28.1297C79.7671 28.5086 79.2079 28.9776 78.793 29.1579C78.0895 29.4826 77.0793 29.5007 53.0338 29.5007H28.0141L27.9059 28.9054C27.7074 27.769 26.553 20.3911 26.553 20.2468C26.553 20.1747 38.1699 20.1206 52.3483 20.1206C73.6159 20.1206 78.2518 20.1566 78.7389 20.3731ZM76.7546 33.4151C76.6284 34.299 76.0692 37.5099 75.528 40.5945C75.0049 43.6611 74.4998 46.5653 74.4457 47.0343L74.3194 47.9001H52.6008C40.6592 47.9001 30.8822 47.846 30.8822 47.7919C30.8822 47.6115 28.5553 32.91 28.429 32.3328L28.3207 31.8457H52.673H77.0072L76.7546 33.4151ZM73.7422 51.0028C73.5437 52.1753 72.6418 53.907 71.6316 55.0074L70.7117 56.0176H51.4464H32.1991L31.8022 53.438C31.5857 52.031 31.3693 50.7322 31.3152 50.5518C31.225 50.2632 32.3253 50.2452 52.5467 50.2452H73.8684L73.7422 51.0028ZM35.5001 65.1271C37.4122 65.6863 39.1079 67.4 39.7212 69.3482C40.1541 70.7191 40.1722 71.6932 39.7934 72.9739C39.2522 74.7778 38.0075 76.2389 36.2938 77.0868C35.446 77.5016 35.0853 77.5738 33.6782 77.5738C32.3073 77.5738 31.8924 77.5016 31.0446 77.1048C29.6736 76.4554 28.7176 75.5535 27.978 74.2006C27.4008 73.1182 27.3647 72.9739 27.3647 71.2603C27.3647 69.745 27.4368 69.3301 27.7796 68.6266C28.6094 66.967 29.9803 65.7404 31.7481 65.1091C32.65 64.7844 34.3998 64.8024 35.5001 65.1271ZM69.3407 65.4338C70.6576 66.0471 71.9022 67.2917 72.5155 68.6086C72.9304 69.4925 73.0026 69.8713 73.0026 71.2603C73.0026 72.6492 72.9304 73.028 72.5155 73.9119C71.9022 75.2288 70.6576 76.4734 69.3407 77.0868C68.4568 77.5016 68.078 77.5738 66.689 77.5738C65.3001 77.5738 64.9212 77.5016 64.0374 77.0868C58.8963 74.6876 59.1128 67.4902 64.3981 65.2714C65.8232 64.6761 67.8616 64.7483 69.3407 65.4338Z" fill="#353A3A"/>
<path d="M32.7406 66.8589C31.7485 67.0393 31.0991 67.4001 30.4136 68.1396C29.4756 69.1318 29.187 69.8533 29.187 71.2603C29.187 72.7756 29.6019 73.7136 30.7203 74.6697C31.7124 75.4994 32.452 75.7339 33.9492 75.6437C36.3303 75.5175 37.9358 73.912 38.062 71.5309C38.2424 68.4643 35.7711 66.3177 32.7406 66.8589ZM35.1398 69.7451C35.9696 70.5208 35.9154 71.9278 35.0315 72.8117C34.6167 73.2266 34.3641 73.3348 33.7147 73.3348C31.7665 73.3348 30.7564 71.1341 32.1273 69.8353C33.0473 68.9514 34.2559 68.9153 35.1398 69.7451Z" fill="#353A3A"/>
<path d="M65.8051 66.8768C64.1095 67.1113 62.5401 68.6807 62.3056 70.3763C61.9989 72.3425 62.6664 73.948 64.2357 75.0483C64.9573 75.5534 65.1016 75.5895 66.689 75.5895C68.2764 75.5895 68.4207 75.5534 69.1423 75.0483C70.2065 74.3087 70.9101 73.2444 71.0724 72.1621C71.5955 68.8069 69.1603 66.3717 65.8051 66.8768ZM68.1682 69.763C69.5391 71.0437 68.565 73.3346 66.671 73.3346C64.9032 73.3346 63.9471 71.2782 65.0836 69.9253C65.8953 68.9512 67.2302 68.8791 68.1682 69.763Z" fill="#353A3A"/>
</svg>
