<svg width="89" height="80" viewBox="0 0 89 80" fill="none" xmlns="http://www.w3.org/2000/svg">
<path d="M10.4926 39.0071C8.64053 37.1501 7.17312 34.9395 6.1759 32.5043C5.17868 30.069 4.6716 27.4578 4.68421 24.8228C4.68421 19.4934 6.78164 14.3822 10.5151 10.6138C14.2486 6.84531 19.3122 4.72821 24.5921 4.72821C31.9932 4.72821 38.4574 8.7944 41.8768 14.8464H47.1232C48.8615 11.7687 51.3769 9.21089 54.4131 7.43354C57.4494 5.65618 60.898 4.72272 64.4079 4.72821C69.6878 4.72821 74.7514 6.84531 78.4849 10.6138C82.2184 14.3822 84.3158 19.4934 84.3158 24.8228C84.3158 30.3547 81.9737 35.461 78.5074 39.0071L44.5 73.2861L10.4926 39.0071ZM81.7863 42.3641C86.2363 37.8251 89 31.6785 89 24.8228C89 18.2394 86.409 11.9256 81.7971 7.27048C77.1852 2.61532 70.9301 8.53522e-05 64.4079 8.53522e-05C56.2105 8.53522e-05 48.95 4.01899 44.5 10.2601C42.2286 7.07572 39.2378 4.48385 35.7756 2.69951C32.3133 0.91516 28.4795 -0.0102331 24.5921 8.53522e-05C18.0699 8.53522e-05 11.8148 2.61532 7.20286 7.27048C2.59095 11.9256 0 18.2394 0 24.8228C0 31.6785 2.76368 37.8251 7.21368 42.3641L44.5 80L81.7863 42.3641Z" fill="#353A3A"/>
</svg>
