<svg width="83" height="83" viewBox="0 0 83 83" fill="none" xmlns="http://www.w3.org/2000/svg">
<path d="M11.9172 0.401695L11.4479 0.803391L11.3977 5.20534L11.3474 9.62402L7.12364 15.2311L2.89991 20.8381L2.84962 36.5378L2.8161 52.2375L1.82721 53.1915C0.687474 54.3129 0.134366 55.5348 0.0170405 57.2587C-0.20085 60.1208 1.67636 62.6482 5.33023 64.3889C6.06771 64.7404 6.65434 65.0584 6.65434 65.1086C6.6711 65.1588 6.40292 65.3429 6.05095 65.527C5.71573 65.7111 4.96149 66.3137 4.39162 66.8828C0.972409 70.1633 1.69313 74.6824 5.96714 76.7746C8.31366 77.9462 10.744 77.7286 13.5766 76.1051C15.3532 75.0841 17.4818 73.3936 19.577 71.3014L21.3704 69.544L21.5547 70.3307C22.7112 75.3519 28.9127 78.5487 41.7013 80.7413C52.1098 82.5322 63.8591 83.3859 70.7143 82.8335C77.3013 82.3147 80.1507 80.8752 80.1507 78.0801C80.1507 77.6114 80.0501 76.9754 79.916 76.6574C79.2623 74.9837 77.0164 72.6572 74.0162 70.5148L72.7424 69.5942L74.0162 68.6234C78.3237 65.3931 81.391 60.4221 82.6313 54.6812C82.9162 53.3087 83 52.4049 83 50.0449C83 46.9317 82.8324 45.4086 82.162 42.8478C80.6535 37.0567 77.8377 33.0229 73.9659 31.1149C71.9546 30.1274 70.8316 29.9098 68.4348 29.9935C66.3062 30.0772 64.5128 30.5291 62.7529 31.4161C62.3004 31.6337 61.8813 31.7676 61.831 31.6839C61.764 31.617 61.6132 30.9977 61.5126 30.3282C61.3953 29.6587 60.7416 27.3992 60.0209 25.307C58.8141 21.7252 58.7303 21.4072 58.6632 19.7502C58.5962 17.7919 58.8309 16.4194 59.5516 14.8126C59.7862 14.277 59.9706 13.7582 59.9706 13.6577C59.9706 13.4736 57.4732 12.1346 57.3727 12.2518C57.1548 12.5029 56.5681 13.9088 56.1994 15.0637C55.8139 16.2186 55.7133 16.8881 55.6463 18.5953C55.5625 21.2231 55.7971 22.4784 57.0542 26.0769C57.557 27.5163 58.1269 29.2905 58.2945 29.9935C58.6297 31.2488 58.9314 33.8096 58.7638 33.8096C58.7135 33.8096 58.1269 33.4414 57.4397 32.9895C54.9256 31.3492 52.1098 30.2278 49.9476 30.0269L48.7408 29.9098V25.4242V20.9218L44.4668 15.2311L40.1928 9.54033V5.25555V0.970764L39.7067 0.485382L39.2207 0H25.7952H12.3865L11.9172 0.401695ZM37.1758 5.77441V8.53609H25.7785H14.3811V5.77441V3.01273H25.7785H37.1758V5.77441ZM32.466 15.8169L29.2647 20.0849H18.3031H7.34153L10.5429 15.8169L13.7442 11.5488H24.7058H35.6674L32.466 15.8169ZM41.4834 16.3692L44.1986 20.0012L41.4331 20.0514C39.9246 20.0682 37.444 20.0682 35.9355 20.0514L33.1868 20.0012L35.8853 16.3692C37.377 14.3607 38.634 12.7204 38.6843 12.7372C38.7346 12.7372 39.9917 14.3774 41.4834 16.3692ZM28.6278 27.282V31.4664H17.2304H5.83306V27.282V23.0976H17.2304H28.6278V27.282ZM45.7239 26.646V30.2111L44.7517 30.5123C42.5728 31.1986 39.9079 33.3242 38.3994 35.567C36.7903 37.9605 35.6003 40.923 34.8796 44.3374C34.4941 46.1618 34.4438 46.8648 34.4271 49.5763L34.4103 52.7229H33.0359H31.6448V37.9103V23.0976H38.6843H45.7239V26.646ZM51.8416 33.5753C53.4339 34.1611 54.9423 34.9812 56.6352 36.2031C57.3391 36.6884 58.0263 37.1404 58.1772 37.2073C58.4286 37.3077 58.4286 37.3747 58.1939 38.1111C58.0599 38.5463 57.909 39.1154 57.842 39.3664C57.7917 39.6342 57.6744 39.8351 57.5906 39.8351C57.1883 39.8351 56.0988 39.1154 55.5793 38.4961L54.9926 37.8266L53.7188 38.5296C53.0148 38.9313 52.4282 39.333 52.4282 39.4501C52.4282 39.5505 52.8472 40.1029 53.3668 40.6552C55.8977 43.3834 60.1214 43.7851 63.0714 41.5423C64.0602 40.8058 65.0826 39.5171 64.8648 39.2995C64.781 39.2158 64.1943 38.8476 63.5742 38.4793L62.4344 37.8266L61.8478 38.4961C61.5294 38.881 61.2444 39.1488 61.2109 39.1154C61.1606 39.0819 61.2444 38.563 61.3785 37.9772C61.5126 37.3914 61.6634 36.5545 61.7305 36.1194L61.831 35.3327L63.7083 34.4121C66.0883 33.2405 67.5297 32.9058 69.4908 33.0062C70.2953 33.0564 71.2842 33.2405 71.7032 33.4079C76.0443 35.1319 79.1953 40.5715 79.916 47.6012C80.5697 53.8276 78.5249 59.8363 74.2508 64.3052C73.1446 65.4601 70.2785 67.6192 69.8595 67.6192C69.7757 67.6192 69.0047 67.2008 68.1666 66.6819C59.7359 61.5937 46.9307 55.7858 39.9581 53.9112L37.5949 53.2752L37.4608 52.3714C37.2429 50.9655 37.4608 46.8313 37.8463 44.9902C39.0028 39.5003 41.6677 35.2992 44.9696 33.7427C46.3105 33.1066 46.9642 32.9727 48.8246 33.0397C50.1487 33.0899 50.7856 33.2071 51.8416 33.5753ZM28.6278 43.9023V53.3254L27.7562 53.7606C27.2702 53.9949 26.5327 54.4971 26.1137 54.8653L25.3427 55.5348L24.9739 53.6937C24.4544 51.1663 23.2643 47.6347 22.3257 45.8605C20.9513 43.2495 19.4596 41.9273 17.398 41.4419C14.1967 40.6887 11.2636 41.7431 10.04 44.1031C9.1517 45.8271 9.20199 48.0866 10.1741 50.3964L10.6602 51.568L10.0568 51.4341C9.70481 51.3839 8.63212 51.3169 7.64323 51.3169L5.83306 51.3002V42.8813V34.4791H17.2304H28.6278V43.9023ZM16.5768 44.3709C17.264 44.5216 17.6159 44.7224 18.2528 45.3584C19.996 47.0991 21.6721 51.7354 22.5939 57.4596L22.9459 59.602L22.2252 62.1126C21.5212 64.6065 21.5044 64.6567 20.4318 65.912C16.4594 70.6487 11.3809 74.4815 9.11818 74.4815C7.97844 74.4815 6.73814 73.879 5.95038 72.9752C5.11234 71.9877 5.06206 71.2177 5.76601 69.9959C6.46997 68.7908 8.74944 67.3347 11.1462 66.548C11.6323 66.3806 12.1519 66.0961 12.286 65.8952C12.6212 65.4099 12.6044 64.3889 12.2525 63.9704C12.0849 63.7863 11.1295 63.3679 10.1071 63.0331C6.23531 61.7276 4.19049 60.4556 3.40273 58.8321C3.03399 58.0789 2.96695 57.7776 3.05075 57.1918C3.5033 54.3966 6.63758 53.6267 12.0849 54.9824C12.9899 55.2168 13.9956 55.4009 14.3308 55.4009C15.1856 55.4009 15.722 54.8653 15.722 54.0117C15.722 53.4761 15.5543 53.1246 14.7331 52.0367C12.9564 49.6934 12.1854 47.6347 12.5374 46.1786C12.7553 45.2747 13.2413 44.7559 14.1632 44.4379C14.951 44.1533 15.4538 44.1366 16.5768 44.3709ZM35.5165 56.0034C37.0082 56.2545 41.1649 57.3257 41.3325 57.4931C41.3828 57.5433 40.6453 60.2715 39.69 63.552C38.7346 66.8493 37.9636 69.611 37.9468 69.6946C37.9301 69.7951 40.3101 70.6152 40.7124 70.6319C40.7627 70.6319 41.5839 67.9372 42.5393 64.6399C43.4947 61.3594 44.2992 58.6312 44.316 58.5977C44.4836 58.3969 53.0316 62.1461 57.4565 64.3554C62.4512 66.8493 67.513 69.7449 67.513 70.0963C67.513 70.2135 67.2113 71.3684 66.8258 72.6572C66.4403 73.9459 66.1553 75.0171 66.1889 75.0506C66.3397 75.151 69.0382 75.8708 69.0885 75.8038C69.1053 75.7703 69.3902 74.8163 69.7086 73.6781L70.2953 71.6194L71.6194 72.5735C74.6363 74.7159 76.9326 76.9419 77.1002 77.896C77.2175 78.5655 75.1894 79.2852 72.0384 79.7036C69.6584 80.0216 61.1774 79.9714 56.8698 79.6032C54.9423 79.4358 53.3165 79.2684 53.283 79.235C53.2495 79.2015 53.3836 78.6324 53.5847 77.9629C53.7691 77.2934 54.0875 76.239 54.2551 75.6197L54.5904 74.4815L53.1992 74.0631C52.445 73.8288 51.7745 73.6447 51.7243 73.6447C51.674 73.6447 51.3052 74.7828 50.9197 76.172C50.4672 77.7453 50.0985 78.7329 49.9476 78.7998C49.6459 78.9002 44.316 78.1805 41.0308 77.5612C34.4438 76.3561 29.3653 74.6322 26.8512 72.7576C24.3706 70.9165 23.7672 68.59 24.7561 64.5228C25.7952 60.2882 27.1864 57.6437 28.9295 56.6227C30.4883 55.7022 32.6001 55.5013 35.5165 56.0034Z" fill="#353A3A"/>
<path d="M65.5017 17.2563C63.8256 17.4739 62.7361 18.0095 61.4288 19.2313C59.6019 20.9385 59.6689 22.2106 61.6635 24.0015C63.8256 25.943 67.0102 26.4117 69.6416 25.1731C70.7981 24.6208 72.2563 23.2818 72.7088 22.3445C73.1782 21.3904 72.9938 20.7711 71.9378 19.5995C70.2953 17.7584 67.9655 16.9215 65.5017 17.2563ZM68.2505 20.6038C68.6527 20.7879 69.122 21.0892 69.2729 21.2565C69.5243 21.5411 69.5075 21.5745 68.9879 21.9762C68.2002 22.5955 67.5633 22.7964 66.4738 22.7964C65.4514 22.7964 64.2781 22.3612 63.7586 21.7754C63.5071 21.5076 63.5071 21.4574 63.7921 21.2063C64.8815 20.2188 66.8761 19.951 68.2505 20.6038Z" fill="#353A3A"/>
</svg>
