<svg width="83" height="83" viewBox="0 0 83 83" fill="none" xmlns="http://www.w3.org/2000/svg">
<path d="M17.9941 0.226959C16.827 0.486336 16.1623 0.842979 15.3193 1.70216C14.3791 2.62618 13.9738 3.46915 13.7469 4.91192L13.5686 6.11153L12.4662 5.54415C9.38613 3.95547 5.4793 5.23614 4.0041 8.2838C3.46914 9.36993 3.24219 10.8289 3.4043 12.0123C3.53398 12.985 4.11758 14.4764 4.47422 14.7682C4.84707 15.0762 4.7498 15.1572 3.7123 15.4652C2.99902 15.6922 2.49648 15.984 1.84805 16.5838C0.599805 17.7186 0.129688 18.7074 0.0324219 20.3609C-0.0486328 21.901 0.226953 22.9385 0.988867 23.9922C1.44277 24.6082 1.45898 24.6893 1.23203 24.9486C1.10234 25.0945 0.778125 25.6457 0.534961 26.1807C0.113477 27.0885 0.0810547 27.283 0.0810547 29.3418C0.0810547 30.9629 0.162109 31.8221 0.389063 32.665C1.15098 35.5182 2.28574 37.4635 4.47422 39.6682L6.12773 41.3379H3.06387H0V62.0068V82.6758H41.2568H82.5137V62.0068V41.3379H79.9199C78.4934 41.3379 77.3262 41.3055 77.3262 41.2731C77.3262 41.2244 77.8773 38.193 78.542 34.4969C79.7092 28.0936 79.7578 27.6883 79.7578 25.3701C79.7578 20.8959 78.7365 17.9293 76.2887 15.2707L75.6402 14.5736L79.3201 10.8938C81.3465 8.86739 83 7.13282 83 7.05177C83 6.97071 81.6383 5.52794 79.9686 3.85821L76.9209 0.810555L74.2137 3.51778L71.4902 6.24122V3.11251V7.62939e-06H67.2754H63.0605V3.76095V7.53809L59.6887 4.16622L56.333 0.810555L53.2529 3.89063L50.1729 6.97071L53.9338 10.7479L57.6947 14.5088L56.9977 15.2707C56.6086 15.6922 56.0088 16.4541 55.6684 16.9729C55.0037 17.9779 53.9824 20.1664 53.9824 20.6203C53.9824 20.8635 53.8689 20.8311 53.2529 20.442C52.5396 19.9881 51.5346 19.5666 50.6916 19.3883L50.2215 19.2748L50.8213 18.6102C53.9662 15.141 52.7018 9.28887 48.3734 7.2625C46.4768 6.3709 43.5912 6.46817 41.8891 7.45704L41.3703 7.74883L41.273 6.6627C41.0785 4.70118 40.4787 3.32325 39.2629 2.12364C37.8688 0.745712 36.2639 0.0810623 34.2861 0.0972748C32.8109 0.113487 31.5789 0.486336 30.4766 1.24825C28.6609 2.52892 27.6396 4.31212 27.4451 6.56544L27.3479 7.76505L26.6021 7.3922C26.1969 7.18145 25.6133 6.9545 25.3377 6.88966C24.8027 6.79239 24.8027 6.77618 24.8027 5.86837C24.7865 2.075 21.593 -0.583588 17.9941 0.226959ZM20.1502 3.14493C20.7824 3.4043 21.4795 4.1338 21.7064 4.74981C21.8037 5.00919 21.8848 5.57657 21.8848 6.01427C21.8848 6.6627 21.8361 6.8086 21.593 6.8086C20.977 6.8086 19.0316 7.92715 18.1887 8.7377C15.6598 11.2504 15.368 15.2869 17.5078 18.1887C17.8645 18.6588 18.14 19.1127 18.1238 19.21C18.1076 19.291 17.7186 19.4693 17.2809 19.5828C16.1299 19.8746 14.833 20.6852 13.99 21.6578L13.293 22.4684L12.1096 22.2576C11.4773 22.1604 9.80762 22.0631 8.39727 22.0469C6.32227 22.0469 5.67383 22.1117 4.84707 22.3711C3.7123 22.7115 3.56641 22.6629 3.14492 21.8361C2.60996 20.8148 2.98281 19.291 3.92305 18.6102C4.18242 18.4318 4.91191 18.1725 5.52793 18.059C6.14395 17.9455 6.8248 17.7186 7.05176 17.5564C7.53809 17.1998 8.10547 16.0975 8.10547 15.5139C8.10547 14.8979 7.7002 14.0063 7.14902 13.374C5.70625 11.7205 6.20879 9.15919 8.1541 8.18653C9.51582 7.50567 10.4723 7.66778 12.1582 8.81876C12.8715 9.3213 13.1309 9.40235 13.8928 9.40235C15.6273 9.40235 16.5352 8.36485 16.5352 6.40333C16.5352 4.7336 17.0539 3.76095 18.2373 3.22598C19.0154 2.86935 19.4531 2.85313 20.1502 3.14493ZM35.5182 3.17735C36.1504 3.37188 36.6043 3.64747 37.1393 4.19864C38.1119 5.15508 38.4199 6.14395 38.4199 8.21895C38.4199 9.88868 38.5982 10.4398 39.3277 11.0072C39.6357 11.2504 39.9924 11.3477 40.5922 11.3477C41.4189 11.3477 41.6297 11.2504 42.9428 10.294C43.6885 9.74278 44.6449 9.51582 45.7311 9.61309C47.3359 9.75899 48.6166 10.7154 49.3299 12.3041C49.573 12.8715 49.6217 13.2606 49.573 14.1684C49.492 15.4652 49.1191 16.1947 47.8871 17.5078C46.8172 18.6588 46.5902 19.5828 47.109 20.7014C47.5467 21.593 48.2438 22.0145 49.6055 22.209C51.5508 22.4846 52.718 23.3924 53.2854 25.0621C53.6096 26.0186 53.4799 27.202 52.9287 28.126C52.5234 28.8231 52.5072 28.8231 51.4373 28.9365C47.2873 29.3256 43.7533 31.4006 41.7918 34.5617C41.5324 34.9994 41.2568 35.3398 41.2082 35.3398C41.1434 35.3398 40.9326 35.0643 40.7381 34.7238C39.7654 33.0055 37.8039 31.2385 35.7451 30.2334C33.7998 29.277 32.4543 28.9689 30.1523 28.9689C27.9639 28.9689 26.4563 29.3256 24.6406 30.2334C23.9922 30.5576 23.4572 30.8008 23.441 30.7684C23.4248 30.7359 23.1979 30.3469 22.9547 29.9092C21.674 27.6397 19.5666 25.4512 17.443 24.2029C16.8594 23.8625 16.4055 23.5059 16.4379 23.4248C16.5514 23.0195 18.0104 22.3387 18.9992 22.209C20.7014 21.9982 21.3822 21.4957 21.7389 20.215C21.9982 19.2748 21.6902 18.4481 20.6365 17.3133C19.4855 16.065 19.0641 15.1248 19.0641 13.8604C19.0641 12.677 19.4855 11.6395 20.3447 10.7965C21.2525 9.87247 22.209 9.53204 23.5869 9.59688C24.7541 9.64552 25.208 9.84004 26.7318 10.9424C27.8342 11.7367 29.585 11.3152 30.0875 10.1318C30.2334 9.7752 30.3145 8.98087 30.3145 7.91094C30.3145 6.46817 30.3793 6.12774 30.7197 5.43067C31.3357 4.1338 31.8707 3.64747 33.1027 3.22598C34.1727 2.85313 34.4158 2.85313 35.5182 3.17735ZM68.5723 6.97071V11.0234H67.2754H65.9785V6.97071V2.91798H67.2754H68.5723V6.97071ZM61.5691 12.0934C60.8396 12.4014 60.2236 12.677 60.175 12.7256C60.1102 12.7742 58.7809 11.526 57.1922 9.93731L54.3066 7.05177L55.3117 6.04668L56.333 5.0254L59.6076 8.3L62.8822 11.5584L61.5691 12.0934ZM78.2178 6.14395L79.0283 6.97071L76.1104 9.88868L73.2086 12.7904L72.398 12.3527C71.6199 11.9313 71.5713 11.8826 71.5227 11.2018L71.474 10.4885L74.1813 7.76505C76.2887 5.65762 76.9533 5.07403 77.1479 5.18751C77.2938 5.26856 77.7639 5.69005 78.2178 6.14395ZM69.2207 14.3467C71.782 15.0275 74.3758 17.0863 75.5916 19.4045C76.5318 21.2039 76.8398 22.6629 76.8398 25.3215V27.5586H73.4355H70.0312V29.0176V30.4766H73.16H76.2887L75.316 35.9072L74.3434 41.3379H69.5287H64.7141L64.6006 40.3166C64.552 39.7654 64.4547 39.1818 64.4223 39.0197C64.3412 38.7604 64.552 38.7441 67.2592 38.7441H70.1934V37.2852V35.8262H66.8053H63.401L62.8174 34.8373C61.6664 32.9568 59.6725 31.125 57.6137 30.1037L56.8031 29.6984L56.6086 28.4178C56.3979 27.0723 56.3492 23.8301 56.5113 22.8088L56.6248 22.209H63.401H70.1934V20.75V19.291H63.9359H57.6947L57.9865 18.7723C58.1486 18.4805 58.7971 17.7348 59.4131 17.1025C62.023 14.4277 65.6705 13.4064 69.2207 14.3467ZM12.0285 25.208C14.4764 25.7106 16.4055 26.7805 18.2373 28.6123C20.1502 30.5252 21.1066 32.3246 21.6578 34.9994C22.4197 38.8414 20.9607 41.0137 17.3943 41.2731C15.757 41.4027 12.7904 41.0947 11.4936 40.6732C6.48438 39.0359 2.95039 34.3996 2.90176 29.3742C2.86934 27.3803 3.59883 26.1482 5.26855 25.3539C6.01426 24.9973 6.28984 24.9648 8.51074 24.9648C9.98594 24.9648 11.3639 25.0621 12.0285 25.208ZM33.2648 32.3246C34.8373 32.8758 35.7613 33.4594 36.9609 34.6752C38.5658 36.2963 39.7168 38.7928 39.7168 40.6732V41.3379H31.6113H23.5059L23.9598 40.3977C24.6568 39.0359 24.8676 37.9498 24.7541 36.3287C24.6893 35.5668 24.6082 34.6752 24.5434 34.3348C24.4461 33.7512 24.4623 33.735 25.3053 33.2486C26.4076 32.6164 27.6721 32.1301 28.742 31.9356C29.9902 31.7248 32.0004 31.8869 33.2648 32.3246ZM54.9713 32.2598C58.1811 33.2486 60.8234 36.1666 61.5205 39.4736C61.6502 40.0897 61.7637 40.7705 61.7637 40.965V41.3379H52.183H42.6186L42.732 40.3977C43.0076 38.0795 44.0289 36.0693 45.7473 34.4482C48.26 32.0815 51.7291 31.2547 54.9713 32.2598ZM79.5957 46.7686V49.4434H41.1758H2.75586V46.7686V44.0938H41.1758H79.5957V46.7686ZM79.5957 66.0596V79.7578H41.1758H2.75586V66.0596V52.3613H41.1758H79.5957V66.0596Z" fill="#353A3A"/>
<path d="M28.6934 14.0063C27.7369 14.2818 27.3479 14.4926 26.5535 15.2059C25.2891 16.3568 24.6406 17.9131 24.6406 19.8098V20.75H26.0996H27.5586V19.8098C27.5586 18.5129 28.0611 17.5727 29.0176 17.0701C29.4066 16.8594 29.9416 16.6973 30.2334 16.6973C30.5252 16.6973 31.0602 16.8594 31.4492 17.0701C32.4057 17.5727 32.9082 18.5129 32.9082 19.8098V20.75H34.3834H35.8748L35.7775 19.3559C35.583 16.6 34.1889 14.752 31.7734 14.0387C30.7521 13.7307 29.7146 13.7307 28.6934 14.0063Z" fill="#353A3A"/>
<path d="M42.1969 19.5342C39.3762 20.2961 37.4146 22.598 37.0742 25.5646L36.9932 26.2617H38.4359C39.8787 26.2617 39.8787 26.2617 39.976 25.8078C40.3975 23.7814 41.6781 22.4846 43.4613 22.2576L44.0936 22.1604V20.7338V19.291L43.5748 19.3072C43.283 19.3072 42.6508 19.4207 42.1969 19.5342Z" fill="#353A3A"/>
<path d="M64.5195 29.0176V30.4766H65.9785H67.4375V29.0176V27.5586H65.9785H64.5195V29.0176Z" fill="#353A3A"/>
</svg>
